M48
; DRILL file {KiCad (5.1.4)-1} date 25/02/2021 01:00:22
; FORMAT={-:-/ absolute / inch / decimal}
; #@! TF.CreationDate,2021-02-25T01:00:22-03:00
; #@! TF.GenerationSoftware,Kicad,Pcbnew,(5.1.4)-1
; #@! TF.FileFunction,Plated,1,2,PTH
FMAT,2
INCH
T1C0.0157
T2C0.0236
T3C0.0315
T4C0.0335
T5C0.0354
T6C0.0394
T7C0.0400
%
G90
G05
T1
X4.806Y-1.506
X4.81Y-2.65
X4.9118Y-2.3258
X4.974Y-1.566
X5.044Y-2.4264
X5.5369Y-2.2791
X5.5433Y-1.632
X5.562Y-2.144
X5.5731Y-2.2515
X5.5995Y-2.2835
X5.6225Y-2.0186
X5.642Y-1.2053
X5.646Y-2.276
X5.6517Y-2.0547
X5.674Y-1.9836
X5.7166Y-2.3701
X5.73Y-1.966
X5.756Y-2.3701
X5.7792Y-2.0564
X5.794Y-1.886
X5.8093Y-2.756
X5.8185Y-2.0543
X5.842Y-1.708
X5.8429Y-2.2431
X5.8444Y-2.2038
X5.8579Y-1.7781
X5.8633Y-2.5887
X5.872Y-2.292
X5.878Y-2.112
X6.0795Y-1.9465
X6.146Y-2.832
X6.19Y-1.744
X6.196Y-1.496
T3
X3.861Y-3.236
X3.861Y-3.336
X3.861Y-3.436
X3.861Y-3.536
X3.861Y-3.636
X3.861Y-3.736
X3.861Y-3.836
X3.861Y-3.936
X3.861Y-4.036
X4.572Y-0.854
X4.572Y-0.954
X4.572Y-1.054
X4.572Y-1.154
X4.572Y-1.254
X4.572Y-1.354
X4.572Y-1.454
X4.572Y-1.554
X4.572Y-1.654
X4.548Y-4.098
X4.648Y-4.098
X4.748Y-4.098
X4.848Y-4.098
X4.948Y-4.098
X5.048Y-4.098
X5.148Y-4.098
X5.248Y-4.098
X5.348Y-4.098
X3.355Y-3.236
X3.355Y-3.336
X3.355Y-3.436
X3.355Y-3.536
X3.355Y-3.636
X3.355Y-3.736
X3.355Y-3.836
X3.355Y-3.936
X3.655Y-3.236
X3.655Y-3.336
X3.655Y-3.436
X3.655Y-3.536
X3.655Y-3.636
X3.655Y-3.736
X3.655Y-3.836
X3.655Y-3.936
X4.568Y-2.908
X4.568Y-3.008
X4.568Y-3.108
X4.568Y-3.208
X4.568Y-3.308
X4.568Y-3.408
X4.568Y-3.508
X4.568Y-3.608
X4.568Y-3.708
X4.548Y-3.928
X4.648Y-3.928
X4.748Y-3.928
X4.848Y-3.928
X4.948Y-3.928
X5.048Y-3.928
X5.148Y-3.928
X5.248Y-3.928
X5.348Y-3.928
X3.355Y-2.272
X3.355Y-2.372
X3.355Y-2.472
X3.355Y-2.572
X3.355Y-2.672
X3.355Y-2.772
X3.355Y-2.872
X3.355Y-2.972
X3.655Y-2.272
X3.655Y-2.372
X3.655Y-2.472
X3.655Y-2.572
X3.655Y-2.672
X3.655Y-2.772
X3.655Y-2.872
X3.655Y-2.972
X5.6199Y-1.456
X5.812Y-1.456
X4.768Y-3.008
X4.768Y-3.108
X4.768Y-3.208
X4.768Y-3.308
X4.768Y-3.408
X4.768Y-3.508
X4.768Y-3.608
X4.768Y-3.708
X5.068Y-3.008
X5.068Y-3.108
X5.068Y-3.208
X5.068Y-3.308
X5.068Y-3.408
X5.068Y-3.508
X5.068Y-3.608
X5.068Y-3.708
X4.568Y-1.906
X4.568Y-2.006
X4.568Y-2.106
X4.568Y-2.206
X4.568Y-2.306
X4.568Y-2.406
X4.568Y-2.506
X4.568Y-2.606
X4.568Y-2.706
X5.126Y-0.954
X5.126Y-1.054
X5.126Y-1.154
X5.126Y-1.254
X5.126Y-1.354
X5.126Y-1.454
X5.126Y-1.554
X5.126Y-1.654
X5.126Y-1.754
X3.857Y-2.272
X3.857Y-2.372
X3.857Y-2.472
X3.857Y-2.572
X3.857Y-2.672
X3.857Y-2.772
X3.857Y-2.872
X3.857Y-2.972
X3.857Y-3.072
X5.32Y-3.115
X5.32Y-3.215
X5.32Y-3.315
X5.32Y-3.415
X5.32Y-3.515
X5.32Y-3.615
X5.32Y-3.715
X5.62Y-3.115
X5.62Y-3.215
X5.62Y-3.315
X5.62Y-3.415
X5.62Y-3.515
X5.62Y-3.615
X5.62Y-3.715
X5.122Y-1.932
X5.122Y-2.032
X5.122Y-2.132
X5.122Y-2.232
X5.122Y-2.332
X5.122Y-2.432
X5.122Y-2.532
X5.122Y-2.632
X5.122Y-2.732
T4
X6.2277Y-2.6329
X6.2277Y-2.8298
T5
X5.858Y-3.726
X5.958Y-3.726
X5.858Y-3.486
X5.958Y-3.486
T6
X5.414Y-0.898
X5.414Y-0.998
X5.414Y-1.098
X5.414Y-1.198
X5.414Y-1.298
X5.414Y-1.398
X5.414Y-1.498
X5.414Y-1.598
X5.414Y-1.698
X5.414Y-1.798
X5.414Y-1.898
X5.414Y-1.998
X5.414Y-2.098
X5.414Y-2.198
X5.414Y-2.298
X5.414Y-2.398
X5.414Y-2.498
X5.414Y-2.598
X5.414Y-2.698
X5.414Y-2.798
X4.79Y-2.826
X4.89Y-2.826
X6.194Y-1.976
X6.194Y-2.076
X6.194Y-2.176
X6.194Y-2.276
X6.0142Y-0.898
X6.0142Y-0.998
X6.0142Y-1.098
X6.0142Y-1.198
X6.0142Y-1.298
X6.0142Y-1.398
X6.0142Y-1.498
X6.0142Y-1.598
X6.0142Y-1.698
X6.0142Y-1.798
X6.0142Y-1.898
X6.0142Y-1.998
X6.0142Y-2.098
X6.0142Y-2.198
X6.0142Y-2.298
X6.0142Y-2.398
X6.0142Y-2.498
X6.0142Y-2.598
X6.0142Y-2.698
X6.0142Y-2.798
X3.884Y-0.946
X3.884Y-1.046
X3.884Y-1.146
X3.884Y-1.392
X3.884Y-1.492
X3.884Y-1.592
X4.758Y-1.788
X4.858Y-1.788
X5.642Y-0.972
X5.742Y-0.972
X5.842Y-0.972
X5.618Y-2.942
X5.718Y-2.942
X3.328Y-4.106
X3.428Y-4.106
X6.01Y-3.058
X6.11Y-3.058
T7
X4.126Y-0.96
X4.126Y-1.06
X4.126Y-1.16
X4.126Y-1.26
X4.126Y-1.36
X4.126Y-1.46
X4.126Y-1.56
X4.126Y-1.66
X4.126Y-1.76
X4.126Y-1.86
X4.126Y-1.96
X4.126Y-2.06
X4.126Y-2.16
X4.126Y-2.26
X4.126Y-2.36
X4.126Y-2.46
X4.126Y-2.56
X4.126Y-2.66
X4.126Y-2.76
X4.126Y-2.86
X4.126Y-2.96
X4.126Y-3.06
X4.126Y-3.16
X4.126Y-3.26
X4.126Y-3.36
X4.126Y-3.46
X4.126Y-3.56
X4.126Y-3.66
X4.126Y-3.76
X4.126Y-3.86
X4.126Y-3.96
X4.126Y-4.06
X4.326Y-0.96
X4.326Y-1.06
X4.326Y-1.16
X4.326Y-1.26
X4.326Y-1.36
X4.326Y-1.46
X4.326Y-1.56
X4.326Y-1.66
X4.326Y-1.76
X4.326Y-1.86
X4.326Y-1.96
X4.326Y-2.06
X4.326Y-2.16
X4.326Y-2.26
X4.326Y-2.36
X4.326Y-2.46
X4.326Y-2.56
X4.326Y-2.66
X4.326Y-2.76
X4.326Y-2.86
X4.326Y-2.96
X4.326Y-3.06
X4.326Y-3.16
X4.326Y-3.26
X4.326Y-3.36
X4.326Y-3.46
X4.326Y-3.56
X4.326Y-3.66
X4.326Y-3.76
X4.326Y-3.86
X4.326Y-3.96
X4.326Y-4.06
T2
G00X6.3202Y-2.5936
M15
G01X6.3478Y-2.5936
M16
G05
G00X6.3478Y-2.8692
M15
G01X6.3202Y-2.8692
M16
G05
T0
M30
