G04 #@! TF.GenerationSoftware,KiCad,Pcbnew,(5.1.4)-1*
G04 #@! TF.CreationDate,2021-02-25T01:02:42-03:00*
G04 #@! TF.ProjectId,Flash,466c6173-682e-46b6-9963-61645f706362,rev?*
G04 #@! TF.SameCoordinates,Original*
G04 #@! TF.FileFunction,Paste,Top*
G04 #@! TF.FilePolarity,Positive*
%FSLAX46Y46*%
G04 Gerber Fmt 4.6, Leading zero omitted, Abs format (unit mm)*
G04 Created by KiCad (PCBNEW (5.1.4)-1) date 2021-02-25 01:02:42*
%MOMM*%
%LPD*%
G04 APERTURE LIST*
%ADD10C,0.100000*%
%ADD11C,1.150000*%
%ADD12R,1.900000X1.500000*%
%ADD13R,1.350000X0.400000*%
%ADD14R,1.560000X0.650000*%
%ADD15C,0.300000*%
%ADD16R,1.450000X0.450000*%
G04 APERTURE END LIST*
D10*
G36*
X148658105Y-32108604D02*
G01*
X148682373Y-32112204D01*
X148706172Y-32118165D01*
X148729271Y-32126430D01*
X148751450Y-32136920D01*
X148772493Y-32149532D01*
X148792199Y-32164147D01*
X148810377Y-32180623D01*
X148826853Y-32198801D01*
X148841468Y-32218507D01*
X148854080Y-32239550D01*
X148864570Y-32261729D01*
X148872835Y-32284828D01*
X148878796Y-32308627D01*
X148882396Y-32332895D01*
X148883600Y-32357399D01*
X148883600Y-33007401D01*
X148882396Y-33031905D01*
X148878796Y-33056173D01*
X148872835Y-33079972D01*
X148864570Y-33103071D01*
X148854080Y-33125250D01*
X148841468Y-33146293D01*
X148826853Y-33165999D01*
X148810377Y-33184177D01*
X148792199Y-33200653D01*
X148772493Y-33215268D01*
X148751450Y-33227880D01*
X148729271Y-33238370D01*
X148706172Y-33246635D01*
X148682373Y-33252596D01*
X148658105Y-33256196D01*
X148633601Y-33257400D01*
X147733599Y-33257400D01*
X147709095Y-33256196D01*
X147684827Y-33252596D01*
X147661028Y-33246635D01*
X147637929Y-33238370D01*
X147615750Y-33227880D01*
X147594707Y-33215268D01*
X147575001Y-33200653D01*
X147556823Y-33184177D01*
X147540347Y-33165999D01*
X147525732Y-33146293D01*
X147513120Y-33125250D01*
X147502630Y-33103071D01*
X147494365Y-33079972D01*
X147488404Y-33056173D01*
X147484804Y-33031905D01*
X147483600Y-33007401D01*
X147483600Y-32357399D01*
X147484804Y-32332895D01*
X147488404Y-32308627D01*
X147494365Y-32284828D01*
X147502630Y-32261729D01*
X147513120Y-32239550D01*
X147525732Y-32218507D01*
X147540347Y-32198801D01*
X147556823Y-32180623D01*
X147575001Y-32164147D01*
X147594707Y-32149532D01*
X147615750Y-32136920D01*
X147637929Y-32126430D01*
X147661028Y-32118165D01*
X147684827Y-32112204D01*
X147709095Y-32108604D01*
X147733599Y-32107400D01*
X148633601Y-32107400D01*
X148658105Y-32108604D01*
X148658105Y-32108604D01*
G37*
D11*
X148183600Y-32682400D03*
D10*
G36*
X148658105Y-30058604D02*
G01*
X148682373Y-30062204D01*
X148706172Y-30068165D01*
X148729271Y-30076430D01*
X148751450Y-30086920D01*
X148772493Y-30099532D01*
X148792199Y-30114147D01*
X148810377Y-30130623D01*
X148826853Y-30148801D01*
X148841468Y-30168507D01*
X148854080Y-30189550D01*
X148864570Y-30211729D01*
X148872835Y-30234828D01*
X148878796Y-30258627D01*
X148882396Y-30282895D01*
X148883600Y-30307399D01*
X148883600Y-30957401D01*
X148882396Y-30981905D01*
X148878796Y-31006173D01*
X148872835Y-31029972D01*
X148864570Y-31053071D01*
X148854080Y-31075250D01*
X148841468Y-31096293D01*
X148826853Y-31115999D01*
X148810377Y-31134177D01*
X148792199Y-31150653D01*
X148772493Y-31165268D01*
X148751450Y-31177880D01*
X148729271Y-31188370D01*
X148706172Y-31196635D01*
X148682373Y-31202596D01*
X148658105Y-31206196D01*
X148633601Y-31207400D01*
X147733599Y-31207400D01*
X147709095Y-31206196D01*
X147684827Y-31202596D01*
X147661028Y-31196635D01*
X147637929Y-31188370D01*
X147615750Y-31177880D01*
X147594707Y-31165268D01*
X147575001Y-31150653D01*
X147556823Y-31134177D01*
X147540347Y-31115999D01*
X147525732Y-31096293D01*
X147513120Y-31075250D01*
X147502630Y-31053071D01*
X147494365Y-31029972D01*
X147488404Y-31006173D01*
X147484804Y-30981905D01*
X147483600Y-30957401D01*
X147483600Y-30307399D01*
X147484804Y-30282895D01*
X147488404Y-30258627D01*
X147494365Y-30234828D01*
X147502630Y-30211729D01*
X147513120Y-30189550D01*
X147525732Y-30168507D01*
X147540347Y-30148801D01*
X147556823Y-30130623D01*
X147575001Y-30114147D01*
X147594707Y-30099532D01*
X147615750Y-30086920D01*
X147637929Y-30076430D01*
X147661028Y-30068165D01*
X147684827Y-30062204D01*
X147709095Y-30058604D01*
X147733599Y-30057400D01*
X148633601Y-30057400D01*
X148658105Y-30058604D01*
X148658105Y-30058604D01*
G37*
D11*
X148183600Y-30632400D03*
D10*
G36*
X143781305Y-30040604D02*
G01*
X143805573Y-30044204D01*
X143829372Y-30050165D01*
X143852471Y-30058430D01*
X143874650Y-30068920D01*
X143895693Y-30081532D01*
X143915399Y-30096147D01*
X143933577Y-30112623D01*
X143950053Y-30130801D01*
X143964668Y-30150507D01*
X143977280Y-30171550D01*
X143987770Y-30193729D01*
X143996035Y-30216828D01*
X144001996Y-30240627D01*
X144005596Y-30264895D01*
X144006800Y-30289399D01*
X144006800Y-30939401D01*
X144005596Y-30963905D01*
X144001996Y-30988173D01*
X143996035Y-31011972D01*
X143987770Y-31035071D01*
X143977280Y-31057250D01*
X143964668Y-31078293D01*
X143950053Y-31097999D01*
X143933577Y-31116177D01*
X143915399Y-31132653D01*
X143895693Y-31147268D01*
X143874650Y-31159880D01*
X143852471Y-31170370D01*
X143829372Y-31178635D01*
X143805573Y-31184596D01*
X143781305Y-31188196D01*
X143756801Y-31189400D01*
X142856799Y-31189400D01*
X142832295Y-31188196D01*
X142808027Y-31184596D01*
X142784228Y-31178635D01*
X142761129Y-31170370D01*
X142738950Y-31159880D01*
X142717907Y-31147268D01*
X142698201Y-31132653D01*
X142680023Y-31116177D01*
X142663547Y-31097999D01*
X142648932Y-31078293D01*
X142636320Y-31057250D01*
X142625830Y-31035071D01*
X142617565Y-31011972D01*
X142611604Y-30988173D01*
X142608004Y-30963905D01*
X142606800Y-30939401D01*
X142606800Y-30289399D01*
X142608004Y-30264895D01*
X142611604Y-30240627D01*
X142617565Y-30216828D01*
X142625830Y-30193729D01*
X142636320Y-30171550D01*
X142648932Y-30150507D01*
X142663547Y-30130801D01*
X142680023Y-30112623D01*
X142698201Y-30096147D01*
X142717907Y-30081532D01*
X142738950Y-30068920D01*
X142761129Y-30058430D01*
X142784228Y-30050165D01*
X142808027Y-30044204D01*
X142832295Y-30040604D01*
X142856799Y-30039400D01*
X143756801Y-30039400D01*
X143781305Y-30040604D01*
X143781305Y-30040604D01*
G37*
D11*
X143306800Y-30614400D03*
D10*
G36*
X143781305Y-32090604D02*
G01*
X143805573Y-32094204D01*
X143829372Y-32100165D01*
X143852471Y-32108430D01*
X143874650Y-32118920D01*
X143895693Y-32131532D01*
X143915399Y-32146147D01*
X143933577Y-32162623D01*
X143950053Y-32180801D01*
X143964668Y-32200507D01*
X143977280Y-32221550D01*
X143987770Y-32243729D01*
X143996035Y-32266828D01*
X144001996Y-32290627D01*
X144005596Y-32314895D01*
X144006800Y-32339399D01*
X144006800Y-32989401D01*
X144005596Y-33013905D01*
X144001996Y-33038173D01*
X143996035Y-33061972D01*
X143987770Y-33085071D01*
X143977280Y-33107250D01*
X143964668Y-33128293D01*
X143950053Y-33147999D01*
X143933577Y-33166177D01*
X143915399Y-33182653D01*
X143895693Y-33197268D01*
X143874650Y-33209880D01*
X143852471Y-33220370D01*
X143829372Y-33228635D01*
X143805573Y-33234596D01*
X143781305Y-33238196D01*
X143756801Y-33239400D01*
X142856799Y-33239400D01*
X142832295Y-33238196D01*
X142808027Y-33234596D01*
X142784228Y-33228635D01*
X142761129Y-33220370D01*
X142738950Y-33209880D01*
X142717907Y-33197268D01*
X142698201Y-33182653D01*
X142680023Y-33166177D01*
X142663547Y-33147999D01*
X142648932Y-33128293D01*
X142636320Y-33107250D01*
X142625830Y-33085071D01*
X142617565Y-33061972D01*
X142611604Y-33038173D01*
X142608004Y-33013905D01*
X142606800Y-32989401D01*
X142606800Y-32339399D01*
X142608004Y-32314895D01*
X142611604Y-32290627D01*
X142617565Y-32266828D01*
X142625830Y-32243729D01*
X142636320Y-32221550D01*
X142648932Y-32200507D01*
X142663547Y-32180801D01*
X142680023Y-32162623D01*
X142698201Y-32146147D01*
X142717907Y-32131532D01*
X142738950Y-32118920D01*
X142761129Y-32108430D01*
X142784228Y-32100165D01*
X142808027Y-32094204D01*
X142832295Y-32090604D01*
X142856799Y-32089400D01*
X143756801Y-32089400D01*
X143781305Y-32090604D01*
X143781305Y-32090604D01*
G37*
D11*
X143306800Y-32664400D03*
D10*
G36*
X82973705Y-47922204D02*
G01*
X82997973Y-47925804D01*
X83021772Y-47931765D01*
X83044871Y-47940030D01*
X83067050Y-47950520D01*
X83088093Y-47963132D01*
X83107799Y-47977747D01*
X83125977Y-47994223D01*
X83142453Y-48012401D01*
X83157068Y-48032107D01*
X83169680Y-48053150D01*
X83180170Y-48075329D01*
X83188435Y-48098428D01*
X83194396Y-48122227D01*
X83197996Y-48146495D01*
X83199200Y-48170999D01*
X83199200Y-48821001D01*
X83197996Y-48845505D01*
X83194396Y-48869773D01*
X83188435Y-48893572D01*
X83180170Y-48916671D01*
X83169680Y-48938850D01*
X83157068Y-48959893D01*
X83142453Y-48979599D01*
X83125977Y-48997777D01*
X83107799Y-49014253D01*
X83088093Y-49028868D01*
X83067050Y-49041480D01*
X83044871Y-49051970D01*
X83021772Y-49060235D01*
X82997973Y-49066196D01*
X82973705Y-49069796D01*
X82949201Y-49071000D01*
X82049199Y-49071000D01*
X82024695Y-49069796D01*
X82000427Y-49066196D01*
X81976628Y-49060235D01*
X81953529Y-49051970D01*
X81931350Y-49041480D01*
X81910307Y-49028868D01*
X81890601Y-49014253D01*
X81872423Y-48997777D01*
X81855947Y-48979599D01*
X81841332Y-48959893D01*
X81828720Y-48938850D01*
X81818230Y-48916671D01*
X81809965Y-48893572D01*
X81804004Y-48869773D01*
X81800404Y-48845505D01*
X81799200Y-48821001D01*
X81799200Y-48170999D01*
X81800404Y-48146495D01*
X81804004Y-48122227D01*
X81809965Y-48098428D01*
X81818230Y-48075329D01*
X81828720Y-48053150D01*
X81841332Y-48032107D01*
X81855947Y-48012401D01*
X81872423Y-47994223D01*
X81890601Y-47977747D01*
X81910307Y-47963132D01*
X81931350Y-47950520D01*
X81953529Y-47940030D01*
X81976628Y-47931765D01*
X82000427Y-47925804D01*
X82024695Y-47922204D01*
X82049199Y-47921000D01*
X82949201Y-47921000D01*
X82973705Y-47922204D01*
X82973705Y-47922204D01*
G37*
D11*
X82499200Y-48496000D03*
D10*
G36*
X82973705Y-49972204D02*
G01*
X82997973Y-49975804D01*
X83021772Y-49981765D01*
X83044871Y-49990030D01*
X83067050Y-50000520D01*
X83088093Y-50013132D01*
X83107799Y-50027747D01*
X83125977Y-50044223D01*
X83142453Y-50062401D01*
X83157068Y-50082107D01*
X83169680Y-50103150D01*
X83180170Y-50125329D01*
X83188435Y-50148428D01*
X83194396Y-50172227D01*
X83197996Y-50196495D01*
X83199200Y-50220999D01*
X83199200Y-50871001D01*
X83197996Y-50895505D01*
X83194396Y-50919773D01*
X83188435Y-50943572D01*
X83180170Y-50966671D01*
X83169680Y-50988850D01*
X83157068Y-51009893D01*
X83142453Y-51029599D01*
X83125977Y-51047777D01*
X83107799Y-51064253D01*
X83088093Y-51078868D01*
X83067050Y-51091480D01*
X83044871Y-51101970D01*
X83021772Y-51110235D01*
X82997973Y-51116196D01*
X82973705Y-51119796D01*
X82949201Y-51121000D01*
X82049199Y-51121000D01*
X82024695Y-51119796D01*
X82000427Y-51116196D01*
X81976628Y-51110235D01*
X81953529Y-51101970D01*
X81931350Y-51091480D01*
X81910307Y-51078868D01*
X81890601Y-51064253D01*
X81872423Y-51047777D01*
X81855947Y-51029599D01*
X81841332Y-51009893D01*
X81828720Y-50988850D01*
X81818230Y-50966671D01*
X81809965Y-50943572D01*
X81804004Y-50919773D01*
X81800404Y-50895505D01*
X81799200Y-50871001D01*
X81799200Y-50220999D01*
X81800404Y-50196495D01*
X81804004Y-50172227D01*
X81809965Y-50148428D01*
X81818230Y-50125329D01*
X81828720Y-50103150D01*
X81841332Y-50082107D01*
X81855947Y-50062401D01*
X81872423Y-50044223D01*
X81890601Y-50027747D01*
X81910307Y-50013132D01*
X81931350Y-50000520D01*
X81953529Y-49990030D01*
X81976628Y-49981765D01*
X82000427Y-49975804D01*
X82024695Y-49972204D01*
X82049199Y-49971000D01*
X82949201Y-49971000D01*
X82973705Y-49972204D01*
X82973705Y-49972204D01*
G37*
D11*
X82499200Y-50546000D03*
D10*
G36*
X82973705Y-51801004D02*
G01*
X82997973Y-51804604D01*
X83021772Y-51810565D01*
X83044871Y-51818830D01*
X83067050Y-51829320D01*
X83088093Y-51841932D01*
X83107799Y-51856547D01*
X83125977Y-51873023D01*
X83142453Y-51891201D01*
X83157068Y-51910907D01*
X83169680Y-51931950D01*
X83180170Y-51954129D01*
X83188435Y-51977228D01*
X83194396Y-52001027D01*
X83197996Y-52025295D01*
X83199200Y-52049799D01*
X83199200Y-52699801D01*
X83197996Y-52724305D01*
X83194396Y-52748573D01*
X83188435Y-52772372D01*
X83180170Y-52795471D01*
X83169680Y-52817650D01*
X83157068Y-52838693D01*
X83142453Y-52858399D01*
X83125977Y-52876577D01*
X83107799Y-52893053D01*
X83088093Y-52907668D01*
X83067050Y-52920280D01*
X83044871Y-52930770D01*
X83021772Y-52939035D01*
X82997973Y-52944996D01*
X82973705Y-52948596D01*
X82949201Y-52949800D01*
X82049199Y-52949800D01*
X82024695Y-52948596D01*
X82000427Y-52944996D01*
X81976628Y-52939035D01*
X81953529Y-52930770D01*
X81931350Y-52920280D01*
X81910307Y-52907668D01*
X81890601Y-52893053D01*
X81872423Y-52876577D01*
X81855947Y-52858399D01*
X81841332Y-52838693D01*
X81828720Y-52817650D01*
X81818230Y-52795471D01*
X81809965Y-52772372D01*
X81804004Y-52748573D01*
X81800404Y-52724305D01*
X81799200Y-52699801D01*
X81799200Y-52049799D01*
X81800404Y-52025295D01*
X81804004Y-52001027D01*
X81809965Y-51977228D01*
X81818230Y-51954129D01*
X81828720Y-51931950D01*
X81841332Y-51910907D01*
X81855947Y-51891201D01*
X81872423Y-51873023D01*
X81890601Y-51856547D01*
X81910307Y-51841932D01*
X81931350Y-51829320D01*
X81953529Y-51818830D01*
X81976628Y-51810565D01*
X82000427Y-51804604D01*
X82024695Y-51801004D01*
X82049199Y-51799800D01*
X82949201Y-51799800D01*
X82973705Y-51801004D01*
X82973705Y-51801004D01*
G37*
D11*
X82499200Y-52374800D03*
D10*
G36*
X82973705Y-53851004D02*
G01*
X82997973Y-53854604D01*
X83021772Y-53860565D01*
X83044871Y-53868830D01*
X83067050Y-53879320D01*
X83088093Y-53891932D01*
X83107799Y-53906547D01*
X83125977Y-53923023D01*
X83142453Y-53941201D01*
X83157068Y-53960907D01*
X83169680Y-53981950D01*
X83180170Y-54004129D01*
X83188435Y-54027228D01*
X83194396Y-54051027D01*
X83197996Y-54075295D01*
X83199200Y-54099799D01*
X83199200Y-54749801D01*
X83197996Y-54774305D01*
X83194396Y-54798573D01*
X83188435Y-54822372D01*
X83180170Y-54845471D01*
X83169680Y-54867650D01*
X83157068Y-54888693D01*
X83142453Y-54908399D01*
X83125977Y-54926577D01*
X83107799Y-54943053D01*
X83088093Y-54957668D01*
X83067050Y-54970280D01*
X83044871Y-54980770D01*
X83021772Y-54989035D01*
X82997973Y-54994996D01*
X82973705Y-54998596D01*
X82949201Y-54999800D01*
X82049199Y-54999800D01*
X82024695Y-54998596D01*
X82000427Y-54994996D01*
X81976628Y-54989035D01*
X81953529Y-54980770D01*
X81931350Y-54970280D01*
X81910307Y-54957668D01*
X81890601Y-54943053D01*
X81872423Y-54926577D01*
X81855947Y-54908399D01*
X81841332Y-54888693D01*
X81828720Y-54867650D01*
X81818230Y-54845471D01*
X81809965Y-54822372D01*
X81804004Y-54798573D01*
X81800404Y-54774305D01*
X81799200Y-54749801D01*
X81799200Y-54099799D01*
X81800404Y-54075295D01*
X81804004Y-54051027D01*
X81809965Y-54027228D01*
X81818230Y-54004129D01*
X81828720Y-53981950D01*
X81841332Y-53960907D01*
X81855947Y-53941201D01*
X81872423Y-53923023D01*
X81890601Y-53906547D01*
X81910307Y-53891932D01*
X81931350Y-53879320D01*
X81953529Y-53868830D01*
X81976628Y-53860565D01*
X82000427Y-53854604D01*
X82024695Y-53851004D01*
X82049199Y-53849800D01*
X82949201Y-53849800D01*
X82973705Y-53851004D01*
X82973705Y-53851004D01*
G37*
D11*
X82499200Y-54424800D03*
D10*
G36*
X91466705Y-52895204D02*
G01*
X91490973Y-52898804D01*
X91514772Y-52904765D01*
X91537871Y-52913030D01*
X91560050Y-52923520D01*
X91581093Y-52936132D01*
X91600799Y-52950747D01*
X91618977Y-52967223D01*
X91635453Y-52985401D01*
X91650068Y-53005107D01*
X91662680Y-53026150D01*
X91673170Y-53048329D01*
X91681435Y-53071428D01*
X91687396Y-53095227D01*
X91690996Y-53119495D01*
X91692200Y-53143999D01*
X91692200Y-54044001D01*
X91690996Y-54068505D01*
X91687396Y-54092773D01*
X91681435Y-54116572D01*
X91673170Y-54139671D01*
X91662680Y-54161850D01*
X91650068Y-54182893D01*
X91635453Y-54202599D01*
X91618977Y-54220777D01*
X91600799Y-54237253D01*
X91581093Y-54251868D01*
X91560050Y-54264480D01*
X91537871Y-54274970D01*
X91514772Y-54283235D01*
X91490973Y-54289196D01*
X91466705Y-54292796D01*
X91442201Y-54294000D01*
X90792199Y-54294000D01*
X90767695Y-54292796D01*
X90743427Y-54289196D01*
X90719628Y-54283235D01*
X90696529Y-54274970D01*
X90674350Y-54264480D01*
X90653307Y-54251868D01*
X90633601Y-54237253D01*
X90615423Y-54220777D01*
X90598947Y-54202599D01*
X90584332Y-54182893D01*
X90571720Y-54161850D01*
X90561230Y-54139671D01*
X90552965Y-54116572D01*
X90547004Y-54092773D01*
X90543404Y-54068505D01*
X90542200Y-54044001D01*
X90542200Y-53143999D01*
X90543404Y-53119495D01*
X90547004Y-53095227D01*
X90552965Y-53071428D01*
X90561230Y-53048329D01*
X90571720Y-53026150D01*
X90584332Y-53005107D01*
X90598947Y-52985401D01*
X90615423Y-52967223D01*
X90633601Y-52950747D01*
X90653307Y-52936132D01*
X90674350Y-52923520D01*
X90696529Y-52913030D01*
X90719628Y-52904765D01*
X90743427Y-52898804D01*
X90767695Y-52895204D01*
X90792199Y-52894000D01*
X91442201Y-52894000D01*
X91466705Y-52895204D01*
X91466705Y-52895204D01*
G37*
D11*
X91117200Y-53594000D03*
D10*
G36*
X93516705Y-52895204D02*
G01*
X93540973Y-52898804D01*
X93564772Y-52904765D01*
X93587871Y-52913030D01*
X93610050Y-52923520D01*
X93631093Y-52936132D01*
X93650799Y-52950747D01*
X93668977Y-52967223D01*
X93685453Y-52985401D01*
X93700068Y-53005107D01*
X93712680Y-53026150D01*
X93723170Y-53048329D01*
X93731435Y-53071428D01*
X93737396Y-53095227D01*
X93740996Y-53119495D01*
X93742200Y-53143999D01*
X93742200Y-54044001D01*
X93740996Y-54068505D01*
X93737396Y-54092773D01*
X93731435Y-54116572D01*
X93723170Y-54139671D01*
X93712680Y-54161850D01*
X93700068Y-54182893D01*
X93685453Y-54202599D01*
X93668977Y-54220777D01*
X93650799Y-54237253D01*
X93631093Y-54251868D01*
X93610050Y-54264480D01*
X93587871Y-54274970D01*
X93564772Y-54283235D01*
X93540973Y-54289196D01*
X93516705Y-54292796D01*
X93492201Y-54294000D01*
X92842199Y-54294000D01*
X92817695Y-54292796D01*
X92793427Y-54289196D01*
X92769628Y-54283235D01*
X92746529Y-54274970D01*
X92724350Y-54264480D01*
X92703307Y-54251868D01*
X92683601Y-54237253D01*
X92665423Y-54220777D01*
X92648947Y-54202599D01*
X92634332Y-54182893D01*
X92621720Y-54161850D01*
X92611230Y-54139671D01*
X92602965Y-54116572D01*
X92597004Y-54092773D01*
X92593404Y-54068505D01*
X92592200Y-54044001D01*
X92592200Y-53143999D01*
X92593404Y-53119495D01*
X92597004Y-53095227D01*
X92602965Y-53071428D01*
X92611230Y-53048329D01*
X92621720Y-53026150D01*
X92634332Y-53005107D01*
X92648947Y-52985401D01*
X92665423Y-52967223D01*
X92683601Y-52950747D01*
X92703307Y-52936132D01*
X92724350Y-52923520D01*
X92746529Y-52913030D01*
X92769628Y-52904765D01*
X92793427Y-52898804D01*
X92817695Y-52895204D01*
X92842199Y-52894000D01*
X93492201Y-52894000D01*
X93516705Y-52895204D01*
X93516705Y-52895204D01*
G37*
D11*
X93167200Y-53594000D03*
D10*
G36*
X91475705Y-50761604D02*
G01*
X91499973Y-50765204D01*
X91523772Y-50771165D01*
X91546871Y-50779430D01*
X91569050Y-50789920D01*
X91590093Y-50802532D01*
X91609799Y-50817147D01*
X91627977Y-50833623D01*
X91644453Y-50851801D01*
X91659068Y-50871507D01*
X91671680Y-50892550D01*
X91682170Y-50914729D01*
X91690435Y-50937828D01*
X91696396Y-50961627D01*
X91699996Y-50985895D01*
X91701200Y-51010399D01*
X91701200Y-51910401D01*
X91699996Y-51934905D01*
X91696396Y-51959173D01*
X91690435Y-51982972D01*
X91682170Y-52006071D01*
X91671680Y-52028250D01*
X91659068Y-52049293D01*
X91644453Y-52068999D01*
X91627977Y-52087177D01*
X91609799Y-52103653D01*
X91590093Y-52118268D01*
X91569050Y-52130880D01*
X91546871Y-52141370D01*
X91523772Y-52149635D01*
X91499973Y-52155596D01*
X91475705Y-52159196D01*
X91451201Y-52160400D01*
X90801199Y-52160400D01*
X90776695Y-52159196D01*
X90752427Y-52155596D01*
X90728628Y-52149635D01*
X90705529Y-52141370D01*
X90683350Y-52130880D01*
X90662307Y-52118268D01*
X90642601Y-52103653D01*
X90624423Y-52087177D01*
X90607947Y-52068999D01*
X90593332Y-52049293D01*
X90580720Y-52028250D01*
X90570230Y-52006071D01*
X90561965Y-51982972D01*
X90556004Y-51959173D01*
X90552404Y-51934905D01*
X90551200Y-51910401D01*
X90551200Y-51010399D01*
X90552404Y-50985895D01*
X90556004Y-50961627D01*
X90561965Y-50937828D01*
X90570230Y-50914729D01*
X90580720Y-50892550D01*
X90593332Y-50871507D01*
X90607947Y-50851801D01*
X90624423Y-50833623D01*
X90642601Y-50817147D01*
X90662307Y-50802532D01*
X90683350Y-50789920D01*
X90705529Y-50779430D01*
X90728628Y-50771165D01*
X90752427Y-50765204D01*
X90776695Y-50761604D01*
X90801199Y-50760400D01*
X91451201Y-50760400D01*
X91475705Y-50761604D01*
X91475705Y-50761604D01*
G37*
D11*
X91126200Y-51460400D03*
D10*
G36*
X93525705Y-50761604D02*
G01*
X93549973Y-50765204D01*
X93573772Y-50771165D01*
X93596871Y-50779430D01*
X93619050Y-50789920D01*
X93640093Y-50802532D01*
X93659799Y-50817147D01*
X93677977Y-50833623D01*
X93694453Y-50851801D01*
X93709068Y-50871507D01*
X93721680Y-50892550D01*
X93732170Y-50914729D01*
X93740435Y-50937828D01*
X93746396Y-50961627D01*
X93749996Y-50985895D01*
X93751200Y-51010399D01*
X93751200Y-51910401D01*
X93749996Y-51934905D01*
X93746396Y-51959173D01*
X93740435Y-51982972D01*
X93732170Y-52006071D01*
X93721680Y-52028250D01*
X93709068Y-52049293D01*
X93694453Y-52068999D01*
X93677977Y-52087177D01*
X93659799Y-52103653D01*
X93640093Y-52118268D01*
X93619050Y-52130880D01*
X93596871Y-52141370D01*
X93573772Y-52149635D01*
X93549973Y-52155596D01*
X93525705Y-52159196D01*
X93501201Y-52160400D01*
X92851199Y-52160400D01*
X92826695Y-52159196D01*
X92802427Y-52155596D01*
X92778628Y-52149635D01*
X92755529Y-52141370D01*
X92733350Y-52130880D01*
X92712307Y-52118268D01*
X92692601Y-52103653D01*
X92674423Y-52087177D01*
X92657947Y-52068999D01*
X92643332Y-52049293D01*
X92630720Y-52028250D01*
X92620230Y-52006071D01*
X92611965Y-51982972D01*
X92606004Y-51959173D01*
X92602404Y-51934905D01*
X92601200Y-51910401D01*
X92601200Y-51010399D01*
X92602404Y-50985895D01*
X92606004Y-50961627D01*
X92611965Y-50937828D01*
X92620230Y-50914729D01*
X92630720Y-50892550D01*
X92643332Y-50871507D01*
X92657947Y-50851801D01*
X92674423Y-50833623D01*
X92692601Y-50817147D01*
X92712307Y-50802532D01*
X92733350Y-50789920D01*
X92755529Y-50779430D01*
X92778628Y-50771165D01*
X92802427Y-50765204D01*
X92826695Y-50761604D01*
X92851199Y-50760400D01*
X93501201Y-50760400D01*
X93525705Y-50761604D01*
X93525705Y-50761604D01*
G37*
D11*
X93176200Y-51460400D03*
D10*
G36*
X93534705Y-48628004D02*
G01*
X93558973Y-48631604D01*
X93582772Y-48637565D01*
X93605871Y-48645830D01*
X93628050Y-48656320D01*
X93649093Y-48668932D01*
X93668799Y-48683547D01*
X93686977Y-48700023D01*
X93703453Y-48718201D01*
X93718068Y-48737907D01*
X93730680Y-48758950D01*
X93741170Y-48781129D01*
X93749435Y-48804228D01*
X93755396Y-48828027D01*
X93758996Y-48852295D01*
X93760200Y-48876799D01*
X93760200Y-49776801D01*
X93758996Y-49801305D01*
X93755396Y-49825573D01*
X93749435Y-49849372D01*
X93741170Y-49872471D01*
X93730680Y-49894650D01*
X93718068Y-49915693D01*
X93703453Y-49935399D01*
X93686977Y-49953577D01*
X93668799Y-49970053D01*
X93649093Y-49984668D01*
X93628050Y-49997280D01*
X93605871Y-50007770D01*
X93582772Y-50016035D01*
X93558973Y-50021996D01*
X93534705Y-50025596D01*
X93510201Y-50026800D01*
X92860199Y-50026800D01*
X92835695Y-50025596D01*
X92811427Y-50021996D01*
X92787628Y-50016035D01*
X92764529Y-50007770D01*
X92742350Y-49997280D01*
X92721307Y-49984668D01*
X92701601Y-49970053D01*
X92683423Y-49953577D01*
X92666947Y-49935399D01*
X92652332Y-49915693D01*
X92639720Y-49894650D01*
X92629230Y-49872471D01*
X92620965Y-49849372D01*
X92615004Y-49825573D01*
X92611404Y-49801305D01*
X92610200Y-49776801D01*
X92610200Y-48876799D01*
X92611404Y-48852295D01*
X92615004Y-48828027D01*
X92620965Y-48804228D01*
X92629230Y-48781129D01*
X92639720Y-48758950D01*
X92652332Y-48737907D01*
X92666947Y-48718201D01*
X92683423Y-48700023D01*
X92701601Y-48683547D01*
X92721307Y-48668932D01*
X92742350Y-48656320D01*
X92764529Y-48645830D01*
X92787628Y-48637565D01*
X92811427Y-48631604D01*
X92835695Y-48628004D01*
X92860199Y-48626800D01*
X93510201Y-48626800D01*
X93534705Y-48628004D01*
X93534705Y-48628004D01*
G37*
D11*
X93185200Y-49326800D03*
D10*
G36*
X91484705Y-48628004D02*
G01*
X91508973Y-48631604D01*
X91532772Y-48637565D01*
X91555871Y-48645830D01*
X91578050Y-48656320D01*
X91599093Y-48668932D01*
X91618799Y-48683547D01*
X91636977Y-48700023D01*
X91653453Y-48718201D01*
X91668068Y-48737907D01*
X91680680Y-48758950D01*
X91691170Y-48781129D01*
X91699435Y-48804228D01*
X91705396Y-48828027D01*
X91708996Y-48852295D01*
X91710200Y-48876799D01*
X91710200Y-49776801D01*
X91708996Y-49801305D01*
X91705396Y-49825573D01*
X91699435Y-49849372D01*
X91691170Y-49872471D01*
X91680680Y-49894650D01*
X91668068Y-49915693D01*
X91653453Y-49935399D01*
X91636977Y-49953577D01*
X91618799Y-49970053D01*
X91599093Y-49984668D01*
X91578050Y-49997280D01*
X91555871Y-50007770D01*
X91532772Y-50016035D01*
X91508973Y-50021996D01*
X91484705Y-50025596D01*
X91460201Y-50026800D01*
X90810199Y-50026800D01*
X90785695Y-50025596D01*
X90761427Y-50021996D01*
X90737628Y-50016035D01*
X90714529Y-50007770D01*
X90692350Y-49997280D01*
X90671307Y-49984668D01*
X90651601Y-49970053D01*
X90633423Y-49953577D01*
X90616947Y-49935399D01*
X90602332Y-49915693D01*
X90589720Y-49894650D01*
X90579230Y-49872471D01*
X90570965Y-49849372D01*
X90565004Y-49825573D01*
X90561404Y-49801305D01*
X90560200Y-49776801D01*
X90560200Y-48876799D01*
X90561404Y-48852295D01*
X90565004Y-48828027D01*
X90570965Y-48804228D01*
X90579230Y-48781129D01*
X90589720Y-48758950D01*
X90602332Y-48737907D01*
X90616947Y-48718201D01*
X90633423Y-48700023D01*
X90651601Y-48683547D01*
X90671307Y-48668932D01*
X90692350Y-48656320D01*
X90714529Y-48645830D01*
X90737628Y-48637565D01*
X90761427Y-48631604D01*
X90785695Y-48628004D01*
X90810199Y-48626800D01*
X91460201Y-48626800D01*
X91484705Y-48628004D01*
X91484705Y-48628004D01*
G37*
D11*
X91135200Y-49326800D03*
D12*
X160883600Y-68376800D03*
D13*
X158183600Y-70026800D03*
X158183600Y-70676800D03*
X158183600Y-68076800D03*
X158183600Y-68726800D03*
X158183600Y-69376800D03*
D12*
X160883600Y-70376800D03*
D10*
G36*
X157034705Y-76669604D02*
G01*
X157058973Y-76673204D01*
X157082772Y-76679165D01*
X157105871Y-76687430D01*
X157128050Y-76697920D01*
X157149093Y-76710532D01*
X157168799Y-76725147D01*
X157186977Y-76741623D01*
X157203453Y-76759801D01*
X157218068Y-76779507D01*
X157230680Y-76800550D01*
X157241170Y-76822729D01*
X157249435Y-76845828D01*
X157255396Y-76869627D01*
X157258996Y-76893895D01*
X157260200Y-76918399D01*
X157260200Y-77818401D01*
X157258996Y-77842905D01*
X157255396Y-77867173D01*
X157249435Y-77890972D01*
X157241170Y-77914071D01*
X157230680Y-77936250D01*
X157218068Y-77957293D01*
X157203453Y-77976999D01*
X157186977Y-77995177D01*
X157168799Y-78011653D01*
X157149093Y-78026268D01*
X157128050Y-78038880D01*
X157105871Y-78049370D01*
X157082772Y-78057635D01*
X157058973Y-78063596D01*
X157034705Y-78067196D01*
X157010201Y-78068400D01*
X156360199Y-78068400D01*
X156335695Y-78067196D01*
X156311427Y-78063596D01*
X156287628Y-78057635D01*
X156264529Y-78049370D01*
X156242350Y-78038880D01*
X156221307Y-78026268D01*
X156201601Y-78011653D01*
X156183423Y-77995177D01*
X156166947Y-77976999D01*
X156152332Y-77957293D01*
X156139720Y-77936250D01*
X156129230Y-77914071D01*
X156120965Y-77890972D01*
X156115004Y-77867173D01*
X156111404Y-77842905D01*
X156110200Y-77818401D01*
X156110200Y-76918399D01*
X156111404Y-76893895D01*
X156115004Y-76869627D01*
X156120965Y-76845828D01*
X156129230Y-76822729D01*
X156139720Y-76800550D01*
X156152332Y-76779507D01*
X156166947Y-76759801D01*
X156183423Y-76741623D01*
X156201601Y-76725147D01*
X156221307Y-76710532D01*
X156242350Y-76697920D01*
X156264529Y-76687430D01*
X156287628Y-76679165D01*
X156311427Y-76673204D01*
X156335695Y-76669604D01*
X156360199Y-76668400D01*
X157010201Y-76668400D01*
X157034705Y-76669604D01*
X157034705Y-76669604D01*
G37*
D11*
X156685200Y-77368400D03*
D10*
G36*
X154984705Y-76669604D02*
G01*
X155008973Y-76673204D01*
X155032772Y-76679165D01*
X155055871Y-76687430D01*
X155078050Y-76697920D01*
X155099093Y-76710532D01*
X155118799Y-76725147D01*
X155136977Y-76741623D01*
X155153453Y-76759801D01*
X155168068Y-76779507D01*
X155180680Y-76800550D01*
X155191170Y-76822729D01*
X155199435Y-76845828D01*
X155205396Y-76869627D01*
X155208996Y-76893895D01*
X155210200Y-76918399D01*
X155210200Y-77818401D01*
X155208996Y-77842905D01*
X155205396Y-77867173D01*
X155199435Y-77890972D01*
X155191170Y-77914071D01*
X155180680Y-77936250D01*
X155168068Y-77957293D01*
X155153453Y-77976999D01*
X155136977Y-77995177D01*
X155118799Y-78011653D01*
X155099093Y-78026268D01*
X155078050Y-78038880D01*
X155055871Y-78049370D01*
X155032772Y-78057635D01*
X155008973Y-78063596D01*
X154984705Y-78067196D01*
X154960201Y-78068400D01*
X154310199Y-78068400D01*
X154285695Y-78067196D01*
X154261427Y-78063596D01*
X154237628Y-78057635D01*
X154214529Y-78049370D01*
X154192350Y-78038880D01*
X154171307Y-78026268D01*
X154151601Y-78011653D01*
X154133423Y-77995177D01*
X154116947Y-77976999D01*
X154102332Y-77957293D01*
X154089720Y-77936250D01*
X154079230Y-77914071D01*
X154070965Y-77890972D01*
X154065004Y-77867173D01*
X154061404Y-77842905D01*
X154060200Y-77818401D01*
X154060200Y-76918399D01*
X154061404Y-76893895D01*
X154065004Y-76869627D01*
X154070965Y-76845828D01*
X154079230Y-76822729D01*
X154089720Y-76800550D01*
X154102332Y-76779507D01*
X154116947Y-76759801D01*
X154133423Y-76741623D01*
X154151601Y-76725147D01*
X154171307Y-76710532D01*
X154192350Y-76697920D01*
X154214529Y-76687430D01*
X154237628Y-76679165D01*
X154261427Y-76673204D01*
X154285695Y-76669604D01*
X154310199Y-76668400D01*
X154960201Y-76668400D01*
X154984705Y-76669604D01*
X154984705Y-76669604D01*
G37*
D11*
X154635200Y-77368400D03*
D10*
G36*
X146958305Y-40703204D02*
G01*
X146982573Y-40706804D01*
X147006372Y-40712765D01*
X147029471Y-40721030D01*
X147051650Y-40731520D01*
X147072693Y-40744132D01*
X147092399Y-40758747D01*
X147110577Y-40775223D01*
X147127053Y-40793401D01*
X147141668Y-40813107D01*
X147154280Y-40834150D01*
X147164770Y-40856329D01*
X147173035Y-40879428D01*
X147178996Y-40903227D01*
X147182596Y-40927495D01*
X147183800Y-40951999D01*
X147183800Y-41852001D01*
X147182596Y-41876505D01*
X147178996Y-41900773D01*
X147173035Y-41924572D01*
X147164770Y-41947671D01*
X147154280Y-41969850D01*
X147141668Y-41990893D01*
X147127053Y-42010599D01*
X147110577Y-42028777D01*
X147092399Y-42045253D01*
X147072693Y-42059868D01*
X147051650Y-42072480D01*
X147029471Y-42082970D01*
X147006372Y-42091235D01*
X146982573Y-42097196D01*
X146958305Y-42100796D01*
X146933801Y-42102000D01*
X146283799Y-42102000D01*
X146259295Y-42100796D01*
X146235027Y-42097196D01*
X146211228Y-42091235D01*
X146188129Y-42082970D01*
X146165950Y-42072480D01*
X146144907Y-42059868D01*
X146125201Y-42045253D01*
X146107023Y-42028777D01*
X146090547Y-42010599D01*
X146075932Y-41990893D01*
X146063320Y-41969850D01*
X146052830Y-41947671D01*
X146044565Y-41924572D01*
X146038604Y-41900773D01*
X146035004Y-41876505D01*
X146033800Y-41852001D01*
X146033800Y-40951999D01*
X146035004Y-40927495D01*
X146038604Y-40903227D01*
X146044565Y-40879428D01*
X146052830Y-40856329D01*
X146063320Y-40834150D01*
X146075932Y-40813107D01*
X146090547Y-40793401D01*
X146107023Y-40775223D01*
X146125201Y-40758747D01*
X146144907Y-40744132D01*
X146165950Y-40731520D01*
X146188129Y-40721030D01*
X146211228Y-40712765D01*
X146235027Y-40706804D01*
X146259295Y-40703204D01*
X146283799Y-40702000D01*
X146933801Y-40702000D01*
X146958305Y-40703204D01*
X146958305Y-40703204D01*
G37*
D11*
X146608800Y-41402000D03*
D10*
G36*
X144908305Y-40703204D02*
G01*
X144932573Y-40706804D01*
X144956372Y-40712765D01*
X144979471Y-40721030D01*
X145001650Y-40731520D01*
X145022693Y-40744132D01*
X145042399Y-40758747D01*
X145060577Y-40775223D01*
X145077053Y-40793401D01*
X145091668Y-40813107D01*
X145104280Y-40834150D01*
X145114770Y-40856329D01*
X145123035Y-40879428D01*
X145128996Y-40903227D01*
X145132596Y-40927495D01*
X145133800Y-40951999D01*
X145133800Y-41852001D01*
X145132596Y-41876505D01*
X145128996Y-41900773D01*
X145123035Y-41924572D01*
X145114770Y-41947671D01*
X145104280Y-41969850D01*
X145091668Y-41990893D01*
X145077053Y-42010599D01*
X145060577Y-42028777D01*
X145042399Y-42045253D01*
X145022693Y-42059868D01*
X145001650Y-42072480D01*
X144979471Y-42082970D01*
X144956372Y-42091235D01*
X144932573Y-42097196D01*
X144908305Y-42100796D01*
X144883801Y-42102000D01*
X144233799Y-42102000D01*
X144209295Y-42100796D01*
X144185027Y-42097196D01*
X144161228Y-42091235D01*
X144138129Y-42082970D01*
X144115950Y-42072480D01*
X144094907Y-42059868D01*
X144075201Y-42045253D01*
X144057023Y-42028777D01*
X144040547Y-42010599D01*
X144025932Y-41990893D01*
X144013320Y-41969850D01*
X144002830Y-41947671D01*
X143994565Y-41924572D01*
X143988604Y-41900773D01*
X143985004Y-41876505D01*
X143983800Y-41852001D01*
X143983800Y-40951999D01*
X143985004Y-40927495D01*
X143988604Y-40903227D01*
X143994565Y-40879428D01*
X144002830Y-40856329D01*
X144013320Y-40834150D01*
X144025932Y-40813107D01*
X144040547Y-40793401D01*
X144057023Y-40775223D01*
X144075201Y-40758747D01*
X144094907Y-40744132D01*
X144115950Y-40731520D01*
X144138129Y-40721030D01*
X144161228Y-40712765D01*
X144185027Y-40706804D01*
X144209295Y-40703204D01*
X144233799Y-40702000D01*
X144883801Y-40702000D01*
X144908305Y-40703204D01*
X144908305Y-40703204D01*
G37*
D11*
X144558800Y-41402000D03*
D10*
G36*
X152315705Y-29467004D02*
G01*
X152339973Y-29470604D01*
X152363772Y-29476565D01*
X152386871Y-29484830D01*
X152409050Y-29495320D01*
X152430093Y-29507932D01*
X152449799Y-29522547D01*
X152467977Y-29539023D01*
X152484453Y-29557201D01*
X152499068Y-29576907D01*
X152511680Y-29597950D01*
X152522170Y-29620129D01*
X152530435Y-29643228D01*
X152536396Y-29667027D01*
X152539996Y-29691295D01*
X152541200Y-29715799D01*
X152541200Y-30365801D01*
X152539996Y-30390305D01*
X152536396Y-30414573D01*
X152530435Y-30438372D01*
X152522170Y-30461471D01*
X152511680Y-30483650D01*
X152499068Y-30504693D01*
X152484453Y-30524399D01*
X152467977Y-30542577D01*
X152449799Y-30559053D01*
X152430093Y-30573668D01*
X152409050Y-30586280D01*
X152386871Y-30596770D01*
X152363772Y-30605035D01*
X152339973Y-30610996D01*
X152315705Y-30614596D01*
X152291201Y-30615800D01*
X151391199Y-30615800D01*
X151366695Y-30614596D01*
X151342427Y-30610996D01*
X151318628Y-30605035D01*
X151295529Y-30596770D01*
X151273350Y-30586280D01*
X151252307Y-30573668D01*
X151232601Y-30559053D01*
X151214423Y-30542577D01*
X151197947Y-30524399D01*
X151183332Y-30504693D01*
X151170720Y-30483650D01*
X151160230Y-30461471D01*
X151151965Y-30438372D01*
X151146004Y-30414573D01*
X151142404Y-30390305D01*
X151141200Y-30365801D01*
X151141200Y-29715799D01*
X151142404Y-29691295D01*
X151146004Y-29667027D01*
X151151965Y-29643228D01*
X151160230Y-29620129D01*
X151170720Y-29597950D01*
X151183332Y-29576907D01*
X151197947Y-29557201D01*
X151214423Y-29539023D01*
X151232601Y-29522547D01*
X151252307Y-29507932D01*
X151273350Y-29495320D01*
X151295529Y-29484830D01*
X151318628Y-29476565D01*
X151342427Y-29470604D01*
X151366695Y-29467004D01*
X151391199Y-29465800D01*
X152291201Y-29465800D01*
X152315705Y-29467004D01*
X152315705Y-29467004D01*
G37*
D11*
X151841200Y-30040800D03*
D10*
G36*
X152315705Y-27417004D02*
G01*
X152339973Y-27420604D01*
X152363772Y-27426565D01*
X152386871Y-27434830D01*
X152409050Y-27445320D01*
X152430093Y-27457932D01*
X152449799Y-27472547D01*
X152467977Y-27489023D01*
X152484453Y-27507201D01*
X152499068Y-27526907D01*
X152511680Y-27547950D01*
X152522170Y-27570129D01*
X152530435Y-27593228D01*
X152536396Y-27617027D01*
X152539996Y-27641295D01*
X152541200Y-27665799D01*
X152541200Y-28315801D01*
X152539996Y-28340305D01*
X152536396Y-28364573D01*
X152530435Y-28388372D01*
X152522170Y-28411471D01*
X152511680Y-28433650D01*
X152499068Y-28454693D01*
X152484453Y-28474399D01*
X152467977Y-28492577D01*
X152449799Y-28509053D01*
X152430093Y-28523668D01*
X152409050Y-28536280D01*
X152386871Y-28546770D01*
X152363772Y-28555035D01*
X152339973Y-28560996D01*
X152315705Y-28564596D01*
X152291201Y-28565800D01*
X151391199Y-28565800D01*
X151366695Y-28564596D01*
X151342427Y-28560996D01*
X151318628Y-28555035D01*
X151295529Y-28546770D01*
X151273350Y-28536280D01*
X151252307Y-28523668D01*
X151232601Y-28509053D01*
X151214423Y-28492577D01*
X151197947Y-28474399D01*
X151183332Y-28454693D01*
X151170720Y-28433650D01*
X151160230Y-28411471D01*
X151151965Y-28388372D01*
X151146004Y-28364573D01*
X151142404Y-28340305D01*
X151141200Y-28315801D01*
X151141200Y-27665799D01*
X151142404Y-27641295D01*
X151146004Y-27617027D01*
X151151965Y-27593228D01*
X151160230Y-27570129D01*
X151170720Y-27547950D01*
X151183332Y-27526907D01*
X151197947Y-27507201D01*
X151214423Y-27489023D01*
X151232601Y-27472547D01*
X151252307Y-27457932D01*
X151273350Y-27445320D01*
X151295529Y-27434830D01*
X151318628Y-27426565D01*
X151342427Y-27420604D01*
X151366695Y-27417004D01*
X151391199Y-27415800D01*
X152291201Y-27415800D01*
X152315705Y-27417004D01*
X152315705Y-27417004D01*
G37*
D11*
X151841200Y-27990800D03*
D10*
G36*
X142741905Y-40754004D02*
G01*
X142766173Y-40757604D01*
X142789972Y-40763565D01*
X142813071Y-40771830D01*
X142835250Y-40782320D01*
X142856293Y-40794932D01*
X142875999Y-40809547D01*
X142894177Y-40826023D01*
X142910653Y-40844201D01*
X142925268Y-40863907D01*
X142937880Y-40884950D01*
X142948370Y-40907129D01*
X142956635Y-40930228D01*
X142962596Y-40954027D01*
X142966196Y-40978295D01*
X142967400Y-41002799D01*
X142967400Y-41902801D01*
X142966196Y-41927305D01*
X142962596Y-41951573D01*
X142956635Y-41975372D01*
X142948370Y-41998471D01*
X142937880Y-42020650D01*
X142925268Y-42041693D01*
X142910653Y-42061399D01*
X142894177Y-42079577D01*
X142875999Y-42096053D01*
X142856293Y-42110668D01*
X142835250Y-42123280D01*
X142813071Y-42133770D01*
X142789972Y-42142035D01*
X142766173Y-42147996D01*
X142741905Y-42151596D01*
X142717401Y-42152800D01*
X142067399Y-42152800D01*
X142042895Y-42151596D01*
X142018627Y-42147996D01*
X141994828Y-42142035D01*
X141971729Y-42133770D01*
X141949550Y-42123280D01*
X141928507Y-42110668D01*
X141908801Y-42096053D01*
X141890623Y-42079577D01*
X141874147Y-42061399D01*
X141859532Y-42041693D01*
X141846920Y-42020650D01*
X141836430Y-41998471D01*
X141828165Y-41975372D01*
X141822204Y-41951573D01*
X141818604Y-41927305D01*
X141817400Y-41902801D01*
X141817400Y-41002799D01*
X141818604Y-40978295D01*
X141822204Y-40954027D01*
X141828165Y-40930228D01*
X141836430Y-40907129D01*
X141846920Y-40884950D01*
X141859532Y-40863907D01*
X141874147Y-40844201D01*
X141890623Y-40826023D01*
X141908801Y-40809547D01*
X141928507Y-40794932D01*
X141949550Y-40782320D01*
X141971729Y-40771830D01*
X141994828Y-40763565D01*
X142018627Y-40757604D01*
X142042895Y-40754004D01*
X142067399Y-40752800D01*
X142717401Y-40752800D01*
X142741905Y-40754004D01*
X142741905Y-40754004D01*
G37*
D11*
X142392400Y-41452800D03*
D10*
G36*
X140691905Y-40754004D02*
G01*
X140716173Y-40757604D01*
X140739972Y-40763565D01*
X140763071Y-40771830D01*
X140785250Y-40782320D01*
X140806293Y-40794932D01*
X140825999Y-40809547D01*
X140844177Y-40826023D01*
X140860653Y-40844201D01*
X140875268Y-40863907D01*
X140887880Y-40884950D01*
X140898370Y-40907129D01*
X140906635Y-40930228D01*
X140912596Y-40954027D01*
X140916196Y-40978295D01*
X140917400Y-41002799D01*
X140917400Y-41902801D01*
X140916196Y-41927305D01*
X140912596Y-41951573D01*
X140906635Y-41975372D01*
X140898370Y-41998471D01*
X140887880Y-42020650D01*
X140875268Y-42041693D01*
X140860653Y-42061399D01*
X140844177Y-42079577D01*
X140825999Y-42096053D01*
X140806293Y-42110668D01*
X140785250Y-42123280D01*
X140763071Y-42133770D01*
X140739972Y-42142035D01*
X140716173Y-42147996D01*
X140691905Y-42151596D01*
X140667401Y-42152800D01*
X140017399Y-42152800D01*
X139992895Y-42151596D01*
X139968627Y-42147996D01*
X139944828Y-42142035D01*
X139921729Y-42133770D01*
X139899550Y-42123280D01*
X139878507Y-42110668D01*
X139858801Y-42096053D01*
X139840623Y-42079577D01*
X139824147Y-42061399D01*
X139809532Y-42041693D01*
X139796920Y-42020650D01*
X139786430Y-41998471D01*
X139778165Y-41975372D01*
X139772204Y-41951573D01*
X139768604Y-41927305D01*
X139767400Y-41902801D01*
X139767400Y-41002799D01*
X139768604Y-40978295D01*
X139772204Y-40954027D01*
X139778165Y-40930228D01*
X139786430Y-40907129D01*
X139796920Y-40884950D01*
X139809532Y-40863907D01*
X139824147Y-40844201D01*
X139840623Y-40826023D01*
X139858801Y-40809547D01*
X139878507Y-40794932D01*
X139899550Y-40782320D01*
X139921729Y-40771830D01*
X139944828Y-40763565D01*
X139968627Y-40757604D01*
X139992895Y-40754004D01*
X140017399Y-40752800D01*
X140667401Y-40752800D01*
X140691905Y-40754004D01*
X140691905Y-40754004D01*
G37*
D11*
X140342400Y-41452800D03*
D10*
G36*
X157025705Y-79311204D02*
G01*
X157049973Y-79314804D01*
X157073772Y-79320765D01*
X157096871Y-79329030D01*
X157119050Y-79339520D01*
X157140093Y-79352132D01*
X157159799Y-79366747D01*
X157177977Y-79383223D01*
X157194453Y-79401401D01*
X157209068Y-79421107D01*
X157221680Y-79442150D01*
X157232170Y-79464329D01*
X157240435Y-79487428D01*
X157246396Y-79511227D01*
X157249996Y-79535495D01*
X157251200Y-79559999D01*
X157251200Y-80460001D01*
X157249996Y-80484505D01*
X157246396Y-80508773D01*
X157240435Y-80532572D01*
X157232170Y-80555671D01*
X157221680Y-80577850D01*
X157209068Y-80598893D01*
X157194453Y-80618599D01*
X157177977Y-80636777D01*
X157159799Y-80653253D01*
X157140093Y-80667868D01*
X157119050Y-80680480D01*
X157096871Y-80690970D01*
X157073772Y-80699235D01*
X157049973Y-80705196D01*
X157025705Y-80708796D01*
X157001201Y-80710000D01*
X156351199Y-80710000D01*
X156326695Y-80708796D01*
X156302427Y-80705196D01*
X156278628Y-80699235D01*
X156255529Y-80690970D01*
X156233350Y-80680480D01*
X156212307Y-80667868D01*
X156192601Y-80653253D01*
X156174423Y-80636777D01*
X156157947Y-80618599D01*
X156143332Y-80598893D01*
X156130720Y-80577850D01*
X156120230Y-80555671D01*
X156111965Y-80532572D01*
X156106004Y-80508773D01*
X156102404Y-80484505D01*
X156101200Y-80460001D01*
X156101200Y-79559999D01*
X156102404Y-79535495D01*
X156106004Y-79511227D01*
X156111965Y-79487428D01*
X156120230Y-79464329D01*
X156130720Y-79442150D01*
X156143332Y-79421107D01*
X156157947Y-79401401D01*
X156174423Y-79383223D01*
X156192601Y-79366747D01*
X156212307Y-79352132D01*
X156233350Y-79339520D01*
X156255529Y-79329030D01*
X156278628Y-79320765D01*
X156302427Y-79314804D01*
X156326695Y-79311204D01*
X156351199Y-79310000D01*
X157001201Y-79310000D01*
X157025705Y-79311204D01*
X157025705Y-79311204D01*
G37*
D11*
X156676200Y-80010000D03*
D10*
G36*
X154975705Y-79311204D02*
G01*
X154999973Y-79314804D01*
X155023772Y-79320765D01*
X155046871Y-79329030D01*
X155069050Y-79339520D01*
X155090093Y-79352132D01*
X155109799Y-79366747D01*
X155127977Y-79383223D01*
X155144453Y-79401401D01*
X155159068Y-79421107D01*
X155171680Y-79442150D01*
X155182170Y-79464329D01*
X155190435Y-79487428D01*
X155196396Y-79511227D01*
X155199996Y-79535495D01*
X155201200Y-79559999D01*
X155201200Y-80460001D01*
X155199996Y-80484505D01*
X155196396Y-80508773D01*
X155190435Y-80532572D01*
X155182170Y-80555671D01*
X155171680Y-80577850D01*
X155159068Y-80598893D01*
X155144453Y-80618599D01*
X155127977Y-80636777D01*
X155109799Y-80653253D01*
X155090093Y-80667868D01*
X155069050Y-80680480D01*
X155046871Y-80690970D01*
X155023772Y-80699235D01*
X154999973Y-80705196D01*
X154975705Y-80708796D01*
X154951201Y-80710000D01*
X154301199Y-80710000D01*
X154276695Y-80708796D01*
X154252427Y-80705196D01*
X154228628Y-80699235D01*
X154205529Y-80690970D01*
X154183350Y-80680480D01*
X154162307Y-80667868D01*
X154142601Y-80653253D01*
X154124423Y-80636777D01*
X154107947Y-80618599D01*
X154093332Y-80598893D01*
X154080720Y-80577850D01*
X154070230Y-80555671D01*
X154061965Y-80532572D01*
X154056004Y-80508773D01*
X154052404Y-80484505D01*
X154051200Y-80460001D01*
X154051200Y-79559999D01*
X154052404Y-79535495D01*
X154056004Y-79511227D01*
X154061965Y-79487428D01*
X154070230Y-79464329D01*
X154080720Y-79442150D01*
X154093332Y-79421107D01*
X154107947Y-79401401D01*
X154124423Y-79383223D01*
X154142601Y-79366747D01*
X154162307Y-79352132D01*
X154183350Y-79339520D01*
X154205529Y-79329030D01*
X154228628Y-79320765D01*
X154252427Y-79314804D01*
X154276695Y-79311204D01*
X154301199Y-79310000D01*
X154951201Y-79310000D01*
X154975705Y-79311204D01*
X154975705Y-79311204D01*
G37*
D11*
X154626200Y-80010000D03*
D10*
G36*
X152671305Y-63129404D02*
G01*
X152695573Y-63133004D01*
X152719372Y-63138965D01*
X152742471Y-63147230D01*
X152764650Y-63157720D01*
X152785693Y-63170332D01*
X152805399Y-63184947D01*
X152823577Y-63201423D01*
X152840053Y-63219601D01*
X152854668Y-63239307D01*
X152867280Y-63260350D01*
X152877770Y-63282529D01*
X152886035Y-63305628D01*
X152891996Y-63329427D01*
X152895596Y-63353695D01*
X152896800Y-63378199D01*
X152896800Y-64028201D01*
X152895596Y-64052705D01*
X152891996Y-64076973D01*
X152886035Y-64100772D01*
X152877770Y-64123871D01*
X152867280Y-64146050D01*
X152854668Y-64167093D01*
X152840053Y-64186799D01*
X152823577Y-64204977D01*
X152805399Y-64221453D01*
X152785693Y-64236068D01*
X152764650Y-64248680D01*
X152742471Y-64259170D01*
X152719372Y-64267435D01*
X152695573Y-64273396D01*
X152671305Y-64276996D01*
X152646801Y-64278200D01*
X151746799Y-64278200D01*
X151722295Y-64276996D01*
X151698027Y-64273396D01*
X151674228Y-64267435D01*
X151651129Y-64259170D01*
X151628950Y-64248680D01*
X151607907Y-64236068D01*
X151588201Y-64221453D01*
X151570023Y-64204977D01*
X151553547Y-64186799D01*
X151538932Y-64167093D01*
X151526320Y-64146050D01*
X151515830Y-64123871D01*
X151507565Y-64100772D01*
X151501604Y-64076973D01*
X151498004Y-64052705D01*
X151496800Y-64028201D01*
X151496800Y-63378199D01*
X151498004Y-63353695D01*
X151501604Y-63329427D01*
X151507565Y-63305628D01*
X151515830Y-63282529D01*
X151526320Y-63260350D01*
X151538932Y-63239307D01*
X151553547Y-63219601D01*
X151570023Y-63201423D01*
X151588201Y-63184947D01*
X151607907Y-63170332D01*
X151628950Y-63157720D01*
X151651129Y-63147230D01*
X151674228Y-63138965D01*
X151698027Y-63133004D01*
X151722295Y-63129404D01*
X151746799Y-63128200D01*
X152646801Y-63128200D01*
X152671305Y-63129404D01*
X152671305Y-63129404D01*
G37*
D11*
X152196800Y-63703200D03*
D10*
G36*
X152671305Y-65179404D02*
G01*
X152695573Y-65183004D01*
X152719372Y-65188965D01*
X152742471Y-65197230D01*
X152764650Y-65207720D01*
X152785693Y-65220332D01*
X152805399Y-65234947D01*
X152823577Y-65251423D01*
X152840053Y-65269601D01*
X152854668Y-65289307D01*
X152867280Y-65310350D01*
X152877770Y-65332529D01*
X152886035Y-65355628D01*
X152891996Y-65379427D01*
X152895596Y-65403695D01*
X152896800Y-65428199D01*
X152896800Y-66078201D01*
X152895596Y-66102705D01*
X152891996Y-66126973D01*
X152886035Y-66150772D01*
X152877770Y-66173871D01*
X152867280Y-66196050D01*
X152854668Y-66217093D01*
X152840053Y-66236799D01*
X152823577Y-66254977D01*
X152805399Y-66271453D01*
X152785693Y-66286068D01*
X152764650Y-66298680D01*
X152742471Y-66309170D01*
X152719372Y-66317435D01*
X152695573Y-66323396D01*
X152671305Y-66326996D01*
X152646801Y-66328200D01*
X151746799Y-66328200D01*
X151722295Y-66326996D01*
X151698027Y-66323396D01*
X151674228Y-66317435D01*
X151651129Y-66309170D01*
X151628950Y-66298680D01*
X151607907Y-66286068D01*
X151588201Y-66271453D01*
X151570023Y-66254977D01*
X151553547Y-66236799D01*
X151538932Y-66217093D01*
X151526320Y-66196050D01*
X151515830Y-66173871D01*
X151507565Y-66150772D01*
X151501604Y-66126973D01*
X151498004Y-66102705D01*
X151496800Y-66078201D01*
X151496800Y-65428199D01*
X151498004Y-65403695D01*
X151501604Y-65379427D01*
X151507565Y-65355628D01*
X151515830Y-65332529D01*
X151526320Y-65310350D01*
X151538932Y-65289307D01*
X151553547Y-65269601D01*
X151570023Y-65251423D01*
X151588201Y-65234947D01*
X151607907Y-65220332D01*
X151628950Y-65207720D01*
X151651129Y-65197230D01*
X151674228Y-65188965D01*
X151698027Y-65183004D01*
X151722295Y-65179404D01*
X151746799Y-65178200D01*
X152646801Y-65178200D01*
X152671305Y-65179404D01*
X152671305Y-65179404D01*
G37*
D11*
X152196800Y-65753200D03*
D10*
G36*
X154596305Y-69303604D02*
G01*
X154620573Y-69307204D01*
X154644372Y-69313165D01*
X154667471Y-69321430D01*
X154689650Y-69331920D01*
X154710693Y-69344532D01*
X154730399Y-69359147D01*
X154748577Y-69375623D01*
X154765053Y-69393801D01*
X154779668Y-69413507D01*
X154792280Y-69434550D01*
X154802770Y-69456729D01*
X154811035Y-69479828D01*
X154816996Y-69503627D01*
X154820596Y-69527895D01*
X154821800Y-69552399D01*
X154821800Y-70452401D01*
X154820596Y-70476905D01*
X154816996Y-70501173D01*
X154811035Y-70524972D01*
X154802770Y-70548071D01*
X154792280Y-70570250D01*
X154779668Y-70591293D01*
X154765053Y-70610999D01*
X154748577Y-70629177D01*
X154730399Y-70645653D01*
X154710693Y-70660268D01*
X154689650Y-70672880D01*
X154667471Y-70683370D01*
X154644372Y-70691635D01*
X154620573Y-70697596D01*
X154596305Y-70701196D01*
X154571801Y-70702400D01*
X153921799Y-70702400D01*
X153897295Y-70701196D01*
X153873027Y-70697596D01*
X153849228Y-70691635D01*
X153826129Y-70683370D01*
X153803950Y-70672880D01*
X153782907Y-70660268D01*
X153763201Y-70645653D01*
X153745023Y-70629177D01*
X153728547Y-70610999D01*
X153713932Y-70591293D01*
X153701320Y-70570250D01*
X153690830Y-70548071D01*
X153682565Y-70524972D01*
X153676604Y-70501173D01*
X153673004Y-70476905D01*
X153671800Y-70452401D01*
X153671800Y-69552399D01*
X153673004Y-69527895D01*
X153676604Y-69503627D01*
X153682565Y-69479828D01*
X153690830Y-69456729D01*
X153701320Y-69434550D01*
X153713932Y-69413507D01*
X153728547Y-69393801D01*
X153745023Y-69375623D01*
X153763201Y-69359147D01*
X153782907Y-69344532D01*
X153803950Y-69331920D01*
X153826129Y-69321430D01*
X153849228Y-69313165D01*
X153873027Y-69307204D01*
X153897295Y-69303604D01*
X153921799Y-69302400D01*
X154571801Y-69302400D01*
X154596305Y-69303604D01*
X154596305Y-69303604D01*
G37*
D11*
X154246800Y-70002400D03*
D10*
G36*
X152546305Y-69303604D02*
G01*
X152570573Y-69307204D01*
X152594372Y-69313165D01*
X152617471Y-69321430D01*
X152639650Y-69331920D01*
X152660693Y-69344532D01*
X152680399Y-69359147D01*
X152698577Y-69375623D01*
X152715053Y-69393801D01*
X152729668Y-69413507D01*
X152742280Y-69434550D01*
X152752770Y-69456729D01*
X152761035Y-69479828D01*
X152766996Y-69503627D01*
X152770596Y-69527895D01*
X152771800Y-69552399D01*
X152771800Y-70452401D01*
X152770596Y-70476905D01*
X152766996Y-70501173D01*
X152761035Y-70524972D01*
X152752770Y-70548071D01*
X152742280Y-70570250D01*
X152729668Y-70591293D01*
X152715053Y-70610999D01*
X152698577Y-70629177D01*
X152680399Y-70645653D01*
X152660693Y-70660268D01*
X152639650Y-70672880D01*
X152617471Y-70683370D01*
X152594372Y-70691635D01*
X152570573Y-70697596D01*
X152546305Y-70701196D01*
X152521801Y-70702400D01*
X151871799Y-70702400D01*
X151847295Y-70701196D01*
X151823027Y-70697596D01*
X151799228Y-70691635D01*
X151776129Y-70683370D01*
X151753950Y-70672880D01*
X151732907Y-70660268D01*
X151713201Y-70645653D01*
X151695023Y-70629177D01*
X151678547Y-70610999D01*
X151663932Y-70591293D01*
X151651320Y-70570250D01*
X151640830Y-70548071D01*
X151632565Y-70524972D01*
X151626604Y-70501173D01*
X151623004Y-70476905D01*
X151621800Y-70452401D01*
X151621800Y-69552399D01*
X151623004Y-69527895D01*
X151626604Y-69503627D01*
X151632565Y-69479828D01*
X151640830Y-69456729D01*
X151651320Y-69434550D01*
X151663932Y-69413507D01*
X151678547Y-69393801D01*
X151695023Y-69375623D01*
X151713201Y-69359147D01*
X151732907Y-69344532D01*
X151753950Y-69331920D01*
X151776129Y-69321430D01*
X151799228Y-69313165D01*
X151823027Y-69307204D01*
X151847295Y-69303604D01*
X151871799Y-69302400D01*
X152521801Y-69302400D01*
X152546305Y-69303604D01*
X152546305Y-69303604D01*
G37*
D11*
X152196800Y-70002400D03*
D10*
G36*
X152546305Y-67170004D02*
G01*
X152570573Y-67173604D01*
X152594372Y-67179565D01*
X152617471Y-67187830D01*
X152639650Y-67198320D01*
X152660693Y-67210932D01*
X152680399Y-67225547D01*
X152698577Y-67242023D01*
X152715053Y-67260201D01*
X152729668Y-67279907D01*
X152742280Y-67300950D01*
X152752770Y-67323129D01*
X152761035Y-67346228D01*
X152766996Y-67370027D01*
X152770596Y-67394295D01*
X152771800Y-67418799D01*
X152771800Y-68318801D01*
X152770596Y-68343305D01*
X152766996Y-68367573D01*
X152761035Y-68391372D01*
X152752770Y-68414471D01*
X152742280Y-68436650D01*
X152729668Y-68457693D01*
X152715053Y-68477399D01*
X152698577Y-68495577D01*
X152680399Y-68512053D01*
X152660693Y-68526668D01*
X152639650Y-68539280D01*
X152617471Y-68549770D01*
X152594372Y-68558035D01*
X152570573Y-68563996D01*
X152546305Y-68567596D01*
X152521801Y-68568800D01*
X151871799Y-68568800D01*
X151847295Y-68567596D01*
X151823027Y-68563996D01*
X151799228Y-68558035D01*
X151776129Y-68549770D01*
X151753950Y-68539280D01*
X151732907Y-68526668D01*
X151713201Y-68512053D01*
X151695023Y-68495577D01*
X151678547Y-68477399D01*
X151663932Y-68457693D01*
X151651320Y-68436650D01*
X151640830Y-68414471D01*
X151632565Y-68391372D01*
X151626604Y-68367573D01*
X151623004Y-68343305D01*
X151621800Y-68318801D01*
X151621800Y-67418799D01*
X151623004Y-67394295D01*
X151626604Y-67370027D01*
X151632565Y-67346228D01*
X151640830Y-67323129D01*
X151651320Y-67300950D01*
X151663932Y-67279907D01*
X151678547Y-67260201D01*
X151695023Y-67242023D01*
X151713201Y-67225547D01*
X151732907Y-67210932D01*
X151753950Y-67198320D01*
X151776129Y-67187830D01*
X151799228Y-67179565D01*
X151823027Y-67173604D01*
X151847295Y-67170004D01*
X151871799Y-67168800D01*
X152521801Y-67168800D01*
X152546305Y-67170004D01*
X152546305Y-67170004D01*
G37*
D11*
X152196800Y-67868800D03*
D10*
G36*
X154596305Y-67170004D02*
G01*
X154620573Y-67173604D01*
X154644372Y-67179565D01*
X154667471Y-67187830D01*
X154689650Y-67198320D01*
X154710693Y-67210932D01*
X154730399Y-67225547D01*
X154748577Y-67242023D01*
X154765053Y-67260201D01*
X154779668Y-67279907D01*
X154792280Y-67300950D01*
X154802770Y-67323129D01*
X154811035Y-67346228D01*
X154816996Y-67370027D01*
X154820596Y-67394295D01*
X154821800Y-67418799D01*
X154821800Y-68318801D01*
X154820596Y-68343305D01*
X154816996Y-68367573D01*
X154811035Y-68391372D01*
X154802770Y-68414471D01*
X154792280Y-68436650D01*
X154779668Y-68457693D01*
X154765053Y-68477399D01*
X154748577Y-68495577D01*
X154730399Y-68512053D01*
X154710693Y-68526668D01*
X154689650Y-68539280D01*
X154667471Y-68549770D01*
X154644372Y-68558035D01*
X154620573Y-68563996D01*
X154596305Y-68567596D01*
X154571801Y-68568800D01*
X153921799Y-68568800D01*
X153897295Y-68567596D01*
X153873027Y-68563996D01*
X153849228Y-68558035D01*
X153826129Y-68549770D01*
X153803950Y-68539280D01*
X153782907Y-68526668D01*
X153763201Y-68512053D01*
X153745023Y-68495577D01*
X153728547Y-68477399D01*
X153713932Y-68457693D01*
X153701320Y-68436650D01*
X153690830Y-68414471D01*
X153682565Y-68391372D01*
X153676604Y-68367573D01*
X153673004Y-68343305D01*
X153671800Y-68318801D01*
X153671800Y-67418799D01*
X153673004Y-67394295D01*
X153676604Y-67370027D01*
X153682565Y-67346228D01*
X153690830Y-67323129D01*
X153701320Y-67300950D01*
X153713932Y-67279907D01*
X153728547Y-67260201D01*
X153745023Y-67242023D01*
X153763201Y-67225547D01*
X153782907Y-67210932D01*
X153803950Y-67198320D01*
X153826129Y-67187830D01*
X153849228Y-67179565D01*
X153873027Y-67173604D01*
X153897295Y-67170004D01*
X153921799Y-67168800D01*
X154571801Y-67168800D01*
X154596305Y-67170004D01*
X154596305Y-67170004D01*
G37*
D11*
X154246800Y-67868800D03*
D14*
X85619600Y-50510400D03*
X85619600Y-51460400D03*
X85619600Y-52410400D03*
X88319600Y-52410400D03*
X88319600Y-50510400D03*
D10*
G36*
X147967951Y-45036761D02*
G01*
X147975232Y-45037841D01*
X147982371Y-45039629D01*
X147989301Y-45042109D01*
X147995955Y-45045256D01*
X148002268Y-45049040D01*
X148008179Y-45053424D01*
X148013633Y-45058367D01*
X148018576Y-45063821D01*
X148022960Y-45069732D01*
X148026744Y-45076045D01*
X148029891Y-45082699D01*
X148032371Y-45089629D01*
X148034159Y-45096768D01*
X148035239Y-45104049D01*
X148035600Y-45111400D01*
X148035600Y-46436400D01*
X148035239Y-46443751D01*
X148034159Y-46451032D01*
X148032371Y-46458171D01*
X148029891Y-46465101D01*
X148026744Y-46471755D01*
X148022960Y-46478068D01*
X148018576Y-46483979D01*
X148013633Y-46489433D01*
X148008179Y-46494376D01*
X148002268Y-46498760D01*
X147995955Y-46502544D01*
X147989301Y-46505691D01*
X147982371Y-46508171D01*
X147975232Y-46509959D01*
X147967951Y-46511039D01*
X147960600Y-46511400D01*
X147810600Y-46511400D01*
X147803249Y-46511039D01*
X147795968Y-46509959D01*
X147788829Y-46508171D01*
X147781899Y-46505691D01*
X147775245Y-46502544D01*
X147768932Y-46498760D01*
X147763021Y-46494376D01*
X147757567Y-46489433D01*
X147752624Y-46483979D01*
X147748240Y-46478068D01*
X147744456Y-46471755D01*
X147741309Y-46465101D01*
X147738829Y-46458171D01*
X147737041Y-46451032D01*
X147735961Y-46443751D01*
X147735600Y-46436400D01*
X147735600Y-45111400D01*
X147735961Y-45104049D01*
X147737041Y-45096768D01*
X147738829Y-45089629D01*
X147741309Y-45082699D01*
X147744456Y-45076045D01*
X147748240Y-45069732D01*
X147752624Y-45063821D01*
X147757567Y-45058367D01*
X147763021Y-45053424D01*
X147768932Y-45049040D01*
X147775245Y-45045256D01*
X147781899Y-45042109D01*
X147788829Y-45039629D01*
X147795968Y-45037841D01*
X147803249Y-45036761D01*
X147810600Y-45036400D01*
X147960600Y-45036400D01*
X147967951Y-45036761D01*
X147967951Y-45036761D01*
G37*
D15*
X147885600Y-45773900D03*
D10*
G36*
X147467951Y-45036761D02*
G01*
X147475232Y-45037841D01*
X147482371Y-45039629D01*
X147489301Y-45042109D01*
X147495955Y-45045256D01*
X147502268Y-45049040D01*
X147508179Y-45053424D01*
X147513633Y-45058367D01*
X147518576Y-45063821D01*
X147522960Y-45069732D01*
X147526744Y-45076045D01*
X147529891Y-45082699D01*
X147532371Y-45089629D01*
X147534159Y-45096768D01*
X147535239Y-45104049D01*
X147535600Y-45111400D01*
X147535600Y-46436400D01*
X147535239Y-46443751D01*
X147534159Y-46451032D01*
X147532371Y-46458171D01*
X147529891Y-46465101D01*
X147526744Y-46471755D01*
X147522960Y-46478068D01*
X147518576Y-46483979D01*
X147513633Y-46489433D01*
X147508179Y-46494376D01*
X147502268Y-46498760D01*
X147495955Y-46502544D01*
X147489301Y-46505691D01*
X147482371Y-46508171D01*
X147475232Y-46509959D01*
X147467951Y-46511039D01*
X147460600Y-46511400D01*
X147310600Y-46511400D01*
X147303249Y-46511039D01*
X147295968Y-46509959D01*
X147288829Y-46508171D01*
X147281899Y-46505691D01*
X147275245Y-46502544D01*
X147268932Y-46498760D01*
X147263021Y-46494376D01*
X147257567Y-46489433D01*
X147252624Y-46483979D01*
X147248240Y-46478068D01*
X147244456Y-46471755D01*
X147241309Y-46465101D01*
X147238829Y-46458171D01*
X147237041Y-46451032D01*
X147235961Y-46443751D01*
X147235600Y-46436400D01*
X147235600Y-45111400D01*
X147235961Y-45104049D01*
X147237041Y-45096768D01*
X147238829Y-45089629D01*
X147241309Y-45082699D01*
X147244456Y-45076045D01*
X147248240Y-45069732D01*
X147252624Y-45063821D01*
X147257567Y-45058367D01*
X147263021Y-45053424D01*
X147268932Y-45049040D01*
X147275245Y-45045256D01*
X147281899Y-45042109D01*
X147288829Y-45039629D01*
X147295968Y-45037841D01*
X147303249Y-45036761D01*
X147310600Y-45036400D01*
X147460600Y-45036400D01*
X147467951Y-45036761D01*
X147467951Y-45036761D01*
G37*
D15*
X147385600Y-45773900D03*
D10*
G36*
X146967951Y-45036761D02*
G01*
X146975232Y-45037841D01*
X146982371Y-45039629D01*
X146989301Y-45042109D01*
X146995955Y-45045256D01*
X147002268Y-45049040D01*
X147008179Y-45053424D01*
X147013633Y-45058367D01*
X147018576Y-45063821D01*
X147022960Y-45069732D01*
X147026744Y-45076045D01*
X147029891Y-45082699D01*
X147032371Y-45089629D01*
X147034159Y-45096768D01*
X147035239Y-45104049D01*
X147035600Y-45111400D01*
X147035600Y-46436400D01*
X147035239Y-46443751D01*
X147034159Y-46451032D01*
X147032371Y-46458171D01*
X147029891Y-46465101D01*
X147026744Y-46471755D01*
X147022960Y-46478068D01*
X147018576Y-46483979D01*
X147013633Y-46489433D01*
X147008179Y-46494376D01*
X147002268Y-46498760D01*
X146995955Y-46502544D01*
X146989301Y-46505691D01*
X146982371Y-46508171D01*
X146975232Y-46509959D01*
X146967951Y-46511039D01*
X146960600Y-46511400D01*
X146810600Y-46511400D01*
X146803249Y-46511039D01*
X146795968Y-46509959D01*
X146788829Y-46508171D01*
X146781899Y-46505691D01*
X146775245Y-46502544D01*
X146768932Y-46498760D01*
X146763021Y-46494376D01*
X146757567Y-46489433D01*
X146752624Y-46483979D01*
X146748240Y-46478068D01*
X146744456Y-46471755D01*
X146741309Y-46465101D01*
X146738829Y-46458171D01*
X146737041Y-46451032D01*
X146735961Y-46443751D01*
X146735600Y-46436400D01*
X146735600Y-45111400D01*
X146735961Y-45104049D01*
X146737041Y-45096768D01*
X146738829Y-45089629D01*
X146741309Y-45082699D01*
X146744456Y-45076045D01*
X146748240Y-45069732D01*
X146752624Y-45063821D01*
X146757567Y-45058367D01*
X146763021Y-45053424D01*
X146768932Y-45049040D01*
X146775245Y-45045256D01*
X146781899Y-45042109D01*
X146788829Y-45039629D01*
X146795968Y-45037841D01*
X146803249Y-45036761D01*
X146810600Y-45036400D01*
X146960600Y-45036400D01*
X146967951Y-45036761D01*
X146967951Y-45036761D01*
G37*
D15*
X146885600Y-45773900D03*
D10*
G36*
X146467951Y-45036761D02*
G01*
X146475232Y-45037841D01*
X146482371Y-45039629D01*
X146489301Y-45042109D01*
X146495955Y-45045256D01*
X146502268Y-45049040D01*
X146508179Y-45053424D01*
X146513633Y-45058367D01*
X146518576Y-45063821D01*
X146522960Y-45069732D01*
X146526744Y-45076045D01*
X146529891Y-45082699D01*
X146532371Y-45089629D01*
X146534159Y-45096768D01*
X146535239Y-45104049D01*
X146535600Y-45111400D01*
X146535600Y-46436400D01*
X146535239Y-46443751D01*
X146534159Y-46451032D01*
X146532371Y-46458171D01*
X146529891Y-46465101D01*
X146526744Y-46471755D01*
X146522960Y-46478068D01*
X146518576Y-46483979D01*
X146513633Y-46489433D01*
X146508179Y-46494376D01*
X146502268Y-46498760D01*
X146495955Y-46502544D01*
X146489301Y-46505691D01*
X146482371Y-46508171D01*
X146475232Y-46509959D01*
X146467951Y-46511039D01*
X146460600Y-46511400D01*
X146310600Y-46511400D01*
X146303249Y-46511039D01*
X146295968Y-46509959D01*
X146288829Y-46508171D01*
X146281899Y-46505691D01*
X146275245Y-46502544D01*
X146268932Y-46498760D01*
X146263021Y-46494376D01*
X146257567Y-46489433D01*
X146252624Y-46483979D01*
X146248240Y-46478068D01*
X146244456Y-46471755D01*
X146241309Y-46465101D01*
X146238829Y-46458171D01*
X146237041Y-46451032D01*
X146235961Y-46443751D01*
X146235600Y-46436400D01*
X146235600Y-45111400D01*
X146235961Y-45104049D01*
X146237041Y-45096768D01*
X146238829Y-45089629D01*
X146241309Y-45082699D01*
X146244456Y-45076045D01*
X146248240Y-45069732D01*
X146252624Y-45063821D01*
X146257567Y-45058367D01*
X146263021Y-45053424D01*
X146268932Y-45049040D01*
X146275245Y-45045256D01*
X146281899Y-45042109D01*
X146288829Y-45039629D01*
X146295968Y-45037841D01*
X146303249Y-45036761D01*
X146310600Y-45036400D01*
X146460600Y-45036400D01*
X146467951Y-45036761D01*
X146467951Y-45036761D01*
G37*
D15*
X146385600Y-45773900D03*
D10*
G36*
X145967951Y-45036761D02*
G01*
X145975232Y-45037841D01*
X145982371Y-45039629D01*
X145989301Y-45042109D01*
X145995955Y-45045256D01*
X146002268Y-45049040D01*
X146008179Y-45053424D01*
X146013633Y-45058367D01*
X146018576Y-45063821D01*
X146022960Y-45069732D01*
X146026744Y-45076045D01*
X146029891Y-45082699D01*
X146032371Y-45089629D01*
X146034159Y-45096768D01*
X146035239Y-45104049D01*
X146035600Y-45111400D01*
X146035600Y-46436400D01*
X146035239Y-46443751D01*
X146034159Y-46451032D01*
X146032371Y-46458171D01*
X146029891Y-46465101D01*
X146026744Y-46471755D01*
X146022960Y-46478068D01*
X146018576Y-46483979D01*
X146013633Y-46489433D01*
X146008179Y-46494376D01*
X146002268Y-46498760D01*
X145995955Y-46502544D01*
X145989301Y-46505691D01*
X145982371Y-46508171D01*
X145975232Y-46509959D01*
X145967951Y-46511039D01*
X145960600Y-46511400D01*
X145810600Y-46511400D01*
X145803249Y-46511039D01*
X145795968Y-46509959D01*
X145788829Y-46508171D01*
X145781899Y-46505691D01*
X145775245Y-46502544D01*
X145768932Y-46498760D01*
X145763021Y-46494376D01*
X145757567Y-46489433D01*
X145752624Y-46483979D01*
X145748240Y-46478068D01*
X145744456Y-46471755D01*
X145741309Y-46465101D01*
X145738829Y-46458171D01*
X145737041Y-46451032D01*
X145735961Y-46443751D01*
X145735600Y-46436400D01*
X145735600Y-45111400D01*
X145735961Y-45104049D01*
X145737041Y-45096768D01*
X145738829Y-45089629D01*
X145741309Y-45082699D01*
X145744456Y-45076045D01*
X145748240Y-45069732D01*
X145752624Y-45063821D01*
X145757567Y-45058367D01*
X145763021Y-45053424D01*
X145768932Y-45049040D01*
X145775245Y-45045256D01*
X145781899Y-45042109D01*
X145788829Y-45039629D01*
X145795968Y-45037841D01*
X145803249Y-45036761D01*
X145810600Y-45036400D01*
X145960600Y-45036400D01*
X145967951Y-45036761D01*
X145967951Y-45036761D01*
G37*
D15*
X145885600Y-45773900D03*
D10*
G36*
X145467951Y-45036761D02*
G01*
X145475232Y-45037841D01*
X145482371Y-45039629D01*
X145489301Y-45042109D01*
X145495955Y-45045256D01*
X145502268Y-45049040D01*
X145508179Y-45053424D01*
X145513633Y-45058367D01*
X145518576Y-45063821D01*
X145522960Y-45069732D01*
X145526744Y-45076045D01*
X145529891Y-45082699D01*
X145532371Y-45089629D01*
X145534159Y-45096768D01*
X145535239Y-45104049D01*
X145535600Y-45111400D01*
X145535600Y-46436400D01*
X145535239Y-46443751D01*
X145534159Y-46451032D01*
X145532371Y-46458171D01*
X145529891Y-46465101D01*
X145526744Y-46471755D01*
X145522960Y-46478068D01*
X145518576Y-46483979D01*
X145513633Y-46489433D01*
X145508179Y-46494376D01*
X145502268Y-46498760D01*
X145495955Y-46502544D01*
X145489301Y-46505691D01*
X145482371Y-46508171D01*
X145475232Y-46509959D01*
X145467951Y-46511039D01*
X145460600Y-46511400D01*
X145310600Y-46511400D01*
X145303249Y-46511039D01*
X145295968Y-46509959D01*
X145288829Y-46508171D01*
X145281899Y-46505691D01*
X145275245Y-46502544D01*
X145268932Y-46498760D01*
X145263021Y-46494376D01*
X145257567Y-46489433D01*
X145252624Y-46483979D01*
X145248240Y-46478068D01*
X145244456Y-46471755D01*
X145241309Y-46465101D01*
X145238829Y-46458171D01*
X145237041Y-46451032D01*
X145235961Y-46443751D01*
X145235600Y-46436400D01*
X145235600Y-45111400D01*
X145235961Y-45104049D01*
X145237041Y-45096768D01*
X145238829Y-45089629D01*
X145241309Y-45082699D01*
X145244456Y-45076045D01*
X145248240Y-45069732D01*
X145252624Y-45063821D01*
X145257567Y-45058367D01*
X145263021Y-45053424D01*
X145268932Y-45049040D01*
X145275245Y-45045256D01*
X145281899Y-45042109D01*
X145288829Y-45039629D01*
X145295968Y-45037841D01*
X145303249Y-45036761D01*
X145310600Y-45036400D01*
X145460600Y-45036400D01*
X145467951Y-45036761D01*
X145467951Y-45036761D01*
G37*
D15*
X145385600Y-45773900D03*
D10*
G36*
X144967951Y-45036761D02*
G01*
X144975232Y-45037841D01*
X144982371Y-45039629D01*
X144989301Y-45042109D01*
X144995955Y-45045256D01*
X145002268Y-45049040D01*
X145008179Y-45053424D01*
X145013633Y-45058367D01*
X145018576Y-45063821D01*
X145022960Y-45069732D01*
X145026744Y-45076045D01*
X145029891Y-45082699D01*
X145032371Y-45089629D01*
X145034159Y-45096768D01*
X145035239Y-45104049D01*
X145035600Y-45111400D01*
X145035600Y-46436400D01*
X145035239Y-46443751D01*
X145034159Y-46451032D01*
X145032371Y-46458171D01*
X145029891Y-46465101D01*
X145026744Y-46471755D01*
X145022960Y-46478068D01*
X145018576Y-46483979D01*
X145013633Y-46489433D01*
X145008179Y-46494376D01*
X145002268Y-46498760D01*
X144995955Y-46502544D01*
X144989301Y-46505691D01*
X144982371Y-46508171D01*
X144975232Y-46509959D01*
X144967951Y-46511039D01*
X144960600Y-46511400D01*
X144810600Y-46511400D01*
X144803249Y-46511039D01*
X144795968Y-46509959D01*
X144788829Y-46508171D01*
X144781899Y-46505691D01*
X144775245Y-46502544D01*
X144768932Y-46498760D01*
X144763021Y-46494376D01*
X144757567Y-46489433D01*
X144752624Y-46483979D01*
X144748240Y-46478068D01*
X144744456Y-46471755D01*
X144741309Y-46465101D01*
X144738829Y-46458171D01*
X144737041Y-46451032D01*
X144735961Y-46443751D01*
X144735600Y-46436400D01*
X144735600Y-45111400D01*
X144735961Y-45104049D01*
X144737041Y-45096768D01*
X144738829Y-45089629D01*
X144741309Y-45082699D01*
X144744456Y-45076045D01*
X144748240Y-45069732D01*
X144752624Y-45063821D01*
X144757567Y-45058367D01*
X144763021Y-45053424D01*
X144768932Y-45049040D01*
X144775245Y-45045256D01*
X144781899Y-45042109D01*
X144788829Y-45039629D01*
X144795968Y-45037841D01*
X144803249Y-45036761D01*
X144810600Y-45036400D01*
X144960600Y-45036400D01*
X144967951Y-45036761D01*
X144967951Y-45036761D01*
G37*
D15*
X144885600Y-45773900D03*
D10*
G36*
X144467951Y-45036761D02*
G01*
X144475232Y-45037841D01*
X144482371Y-45039629D01*
X144489301Y-45042109D01*
X144495955Y-45045256D01*
X144502268Y-45049040D01*
X144508179Y-45053424D01*
X144513633Y-45058367D01*
X144518576Y-45063821D01*
X144522960Y-45069732D01*
X144526744Y-45076045D01*
X144529891Y-45082699D01*
X144532371Y-45089629D01*
X144534159Y-45096768D01*
X144535239Y-45104049D01*
X144535600Y-45111400D01*
X144535600Y-46436400D01*
X144535239Y-46443751D01*
X144534159Y-46451032D01*
X144532371Y-46458171D01*
X144529891Y-46465101D01*
X144526744Y-46471755D01*
X144522960Y-46478068D01*
X144518576Y-46483979D01*
X144513633Y-46489433D01*
X144508179Y-46494376D01*
X144502268Y-46498760D01*
X144495955Y-46502544D01*
X144489301Y-46505691D01*
X144482371Y-46508171D01*
X144475232Y-46509959D01*
X144467951Y-46511039D01*
X144460600Y-46511400D01*
X144310600Y-46511400D01*
X144303249Y-46511039D01*
X144295968Y-46509959D01*
X144288829Y-46508171D01*
X144281899Y-46505691D01*
X144275245Y-46502544D01*
X144268932Y-46498760D01*
X144263021Y-46494376D01*
X144257567Y-46489433D01*
X144252624Y-46483979D01*
X144248240Y-46478068D01*
X144244456Y-46471755D01*
X144241309Y-46465101D01*
X144238829Y-46458171D01*
X144237041Y-46451032D01*
X144235961Y-46443751D01*
X144235600Y-46436400D01*
X144235600Y-45111400D01*
X144235961Y-45104049D01*
X144237041Y-45096768D01*
X144238829Y-45089629D01*
X144241309Y-45082699D01*
X144244456Y-45076045D01*
X144248240Y-45069732D01*
X144252624Y-45063821D01*
X144257567Y-45058367D01*
X144263021Y-45053424D01*
X144268932Y-45049040D01*
X144275245Y-45045256D01*
X144281899Y-45042109D01*
X144288829Y-45039629D01*
X144295968Y-45037841D01*
X144303249Y-45036761D01*
X144310600Y-45036400D01*
X144460600Y-45036400D01*
X144467951Y-45036761D01*
X144467951Y-45036761D01*
G37*
D15*
X144385600Y-45773900D03*
D10*
G36*
X143967951Y-45036761D02*
G01*
X143975232Y-45037841D01*
X143982371Y-45039629D01*
X143989301Y-45042109D01*
X143995955Y-45045256D01*
X144002268Y-45049040D01*
X144008179Y-45053424D01*
X144013633Y-45058367D01*
X144018576Y-45063821D01*
X144022960Y-45069732D01*
X144026744Y-45076045D01*
X144029891Y-45082699D01*
X144032371Y-45089629D01*
X144034159Y-45096768D01*
X144035239Y-45104049D01*
X144035600Y-45111400D01*
X144035600Y-46436400D01*
X144035239Y-46443751D01*
X144034159Y-46451032D01*
X144032371Y-46458171D01*
X144029891Y-46465101D01*
X144026744Y-46471755D01*
X144022960Y-46478068D01*
X144018576Y-46483979D01*
X144013633Y-46489433D01*
X144008179Y-46494376D01*
X144002268Y-46498760D01*
X143995955Y-46502544D01*
X143989301Y-46505691D01*
X143982371Y-46508171D01*
X143975232Y-46509959D01*
X143967951Y-46511039D01*
X143960600Y-46511400D01*
X143810600Y-46511400D01*
X143803249Y-46511039D01*
X143795968Y-46509959D01*
X143788829Y-46508171D01*
X143781899Y-46505691D01*
X143775245Y-46502544D01*
X143768932Y-46498760D01*
X143763021Y-46494376D01*
X143757567Y-46489433D01*
X143752624Y-46483979D01*
X143748240Y-46478068D01*
X143744456Y-46471755D01*
X143741309Y-46465101D01*
X143738829Y-46458171D01*
X143737041Y-46451032D01*
X143735961Y-46443751D01*
X143735600Y-46436400D01*
X143735600Y-45111400D01*
X143735961Y-45104049D01*
X143737041Y-45096768D01*
X143738829Y-45089629D01*
X143741309Y-45082699D01*
X143744456Y-45076045D01*
X143748240Y-45069732D01*
X143752624Y-45063821D01*
X143757567Y-45058367D01*
X143763021Y-45053424D01*
X143768932Y-45049040D01*
X143775245Y-45045256D01*
X143781899Y-45042109D01*
X143788829Y-45039629D01*
X143795968Y-45037841D01*
X143803249Y-45036761D01*
X143810600Y-45036400D01*
X143960600Y-45036400D01*
X143967951Y-45036761D01*
X143967951Y-45036761D01*
G37*
D15*
X143885600Y-45773900D03*
D10*
G36*
X143467951Y-45036761D02*
G01*
X143475232Y-45037841D01*
X143482371Y-45039629D01*
X143489301Y-45042109D01*
X143495955Y-45045256D01*
X143502268Y-45049040D01*
X143508179Y-45053424D01*
X143513633Y-45058367D01*
X143518576Y-45063821D01*
X143522960Y-45069732D01*
X143526744Y-45076045D01*
X143529891Y-45082699D01*
X143532371Y-45089629D01*
X143534159Y-45096768D01*
X143535239Y-45104049D01*
X143535600Y-45111400D01*
X143535600Y-46436400D01*
X143535239Y-46443751D01*
X143534159Y-46451032D01*
X143532371Y-46458171D01*
X143529891Y-46465101D01*
X143526744Y-46471755D01*
X143522960Y-46478068D01*
X143518576Y-46483979D01*
X143513633Y-46489433D01*
X143508179Y-46494376D01*
X143502268Y-46498760D01*
X143495955Y-46502544D01*
X143489301Y-46505691D01*
X143482371Y-46508171D01*
X143475232Y-46509959D01*
X143467951Y-46511039D01*
X143460600Y-46511400D01*
X143310600Y-46511400D01*
X143303249Y-46511039D01*
X143295968Y-46509959D01*
X143288829Y-46508171D01*
X143281899Y-46505691D01*
X143275245Y-46502544D01*
X143268932Y-46498760D01*
X143263021Y-46494376D01*
X143257567Y-46489433D01*
X143252624Y-46483979D01*
X143248240Y-46478068D01*
X143244456Y-46471755D01*
X143241309Y-46465101D01*
X143238829Y-46458171D01*
X143237041Y-46451032D01*
X143235961Y-46443751D01*
X143235600Y-46436400D01*
X143235600Y-45111400D01*
X143235961Y-45104049D01*
X143237041Y-45096768D01*
X143238829Y-45089629D01*
X143241309Y-45082699D01*
X143244456Y-45076045D01*
X143248240Y-45069732D01*
X143252624Y-45063821D01*
X143257567Y-45058367D01*
X143263021Y-45053424D01*
X143268932Y-45049040D01*
X143275245Y-45045256D01*
X143281899Y-45042109D01*
X143288829Y-45039629D01*
X143295968Y-45037841D01*
X143303249Y-45036761D01*
X143310600Y-45036400D01*
X143460600Y-45036400D01*
X143467951Y-45036761D01*
X143467951Y-45036761D01*
G37*
D15*
X143385600Y-45773900D03*
D10*
G36*
X142967951Y-45036761D02*
G01*
X142975232Y-45037841D01*
X142982371Y-45039629D01*
X142989301Y-45042109D01*
X142995955Y-45045256D01*
X143002268Y-45049040D01*
X143008179Y-45053424D01*
X143013633Y-45058367D01*
X143018576Y-45063821D01*
X143022960Y-45069732D01*
X143026744Y-45076045D01*
X143029891Y-45082699D01*
X143032371Y-45089629D01*
X143034159Y-45096768D01*
X143035239Y-45104049D01*
X143035600Y-45111400D01*
X143035600Y-46436400D01*
X143035239Y-46443751D01*
X143034159Y-46451032D01*
X143032371Y-46458171D01*
X143029891Y-46465101D01*
X143026744Y-46471755D01*
X143022960Y-46478068D01*
X143018576Y-46483979D01*
X143013633Y-46489433D01*
X143008179Y-46494376D01*
X143002268Y-46498760D01*
X142995955Y-46502544D01*
X142989301Y-46505691D01*
X142982371Y-46508171D01*
X142975232Y-46509959D01*
X142967951Y-46511039D01*
X142960600Y-46511400D01*
X142810600Y-46511400D01*
X142803249Y-46511039D01*
X142795968Y-46509959D01*
X142788829Y-46508171D01*
X142781899Y-46505691D01*
X142775245Y-46502544D01*
X142768932Y-46498760D01*
X142763021Y-46494376D01*
X142757567Y-46489433D01*
X142752624Y-46483979D01*
X142748240Y-46478068D01*
X142744456Y-46471755D01*
X142741309Y-46465101D01*
X142738829Y-46458171D01*
X142737041Y-46451032D01*
X142735961Y-46443751D01*
X142735600Y-46436400D01*
X142735600Y-45111400D01*
X142735961Y-45104049D01*
X142737041Y-45096768D01*
X142738829Y-45089629D01*
X142741309Y-45082699D01*
X142744456Y-45076045D01*
X142748240Y-45069732D01*
X142752624Y-45063821D01*
X142757567Y-45058367D01*
X142763021Y-45053424D01*
X142768932Y-45049040D01*
X142775245Y-45045256D01*
X142781899Y-45042109D01*
X142788829Y-45039629D01*
X142795968Y-45037841D01*
X142803249Y-45036761D01*
X142810600Y-45036400D01*
X142960600Y-45036400D01*
X142967951Y-45036761D01*
X142967951Y-45036761D01*
G37*
D15*
X142885600Y-45773900D03*
D10*
G36*
X142467951Y-45036761D02*
G01*
X142475232Y-45037841D01*
X142482371Y-45039629D01*
X142489301Y-45042109D01*
X142495955Y-45045256D01*
X142502268Y-45049040D01*
X142508179Y-45053424D01*
X142513633Y-45058367D01*
X142518576Y-45063821D01*
X142522960Y-45069732D01*
X142526744Y-45076045D01*
X142529891Y-45082699D01*
X142532371Y-45089629D01*
X142534159Y-45096768D01*
X142535239Y-45104049D01*
X142535600Y-45111400D01*
X142535600Y-46436400D01*
X142535239Y-46443751D01*
X142534159Y-46451032D01*
X142532371Y-46458171D01*
X142529891Y-46465101D01*
X142526744Y-46471755D01*
X142522960Y-46478068D01*
X142518576Y-46483979D01*
X142513633Y-46489433D01*
X142508179Y-46494376D01*
X142502268Y-46498760D01*
X142495955Y-46502544D01*
X142489301Y-46505691D01*
X142482371Y-46508171D01*
X142475232Y-46509959D01*
X142467951Y-46511039D01*
X142460600Y-46511400D01*
X142310600Y-46511400D01*
X142303249Y-46511039D01*
X142295968Y-46509959D01*
X142288829Y-46508171D01*
X142281899Y-46505691D01*
X142275245Y-46502544D01*
X142268932Y-46498760D01*
X142263021Y-46494376D01*
X142257567Y-46489433D01*
X142252624Y-46483979D01*
X142248240Y-46478068D01*
X142244456Y-46471755D01*
X142241309Y-46465101D01*
X142238829Y-46458171D01*
X142237041Y-46451032D01*
X142235961Y-46443751D01*
X142235600Y-46436400D01*
X142235600Y-45111400D01*
X142235961Y-45104049D01*
X142237041Y-45096768D01*
X142238829Y-45089629D01*
X142241309Y-45082699D01*
X142244456Y-45076045D01*
X142248240Y-45069732D01*
X142252624Y-45063821D01*
X142257567Y-45058367D01*
X142263021Y-45053424D01*
X142268932Y-45049040D01*
X142275245Y-45045256D01*
X142281899Y-45042109D01*
X142288829Y-45039629D01*
X142295968Y-45037841D01*
X142303249Y-45036761D01*
X142310600Y-45036400D01*
X142460600Y-45036400D01*
X142467951Y-45036761D01*
X142467951Y-45036761D01*
G37*
D15*
X142385600Y-45773900D03*
D10*
G36*
X141642951Y-47036761D02*
G01*
X141650232Y-47037841D01*
X141657371Y-47039629D01*
X141664301Y-47042109D01*
X141670955Y-47045256D01*
X141677268Y-47049040D01*
X141683179Y-47053424D01*
X141688633Y-47058367D01*
X141693576Y-47063821D01*
X141697960Y-47069732D01*
X141701744Y-47076045D01*
X141704891Y-47082699D01*
X141707371Y-47089629D01*
X141709159Y-47096768D01*
X141710239Y-47104049D01*
X141710600Y-47111400D01*
X141710600Y-47261400D01*
X141710239Y-47268751D01*
X141709159Y-47276032D01*
X141707371Y-47283171D01*
X141704891Y-47290101D01*
X141701744Y-47296755D01*
X141697960Y-47303068D01*
X141693576Y-47308979D01*
X141688633Y-47314433D01*
X141683179Y-47319376D01*
X141677268Y-47323760D01*
X141670955Y-47327544D01*
X141664301Y-47330691D01*
X141657371Y-47333171D01*
X141650232Y-47334959D01*
X141642951Y-47336039D01*
X141635600Y-47336400D01*
X140310600Y-47336400D01*
X140303249Y-47336039D01*
X140295968Y-47334959D01*
X140288829Y-47333171D01*
X140281899Y-47330691D01*
X140275245Y-47327544D01*
X140268932Y-47323760D01*
X140263021Y-47319376D01*
X140257567Y-47314433D01*
X140252624Y-47308979D01*
X140248240Y-47303068D01*
X140244456Y-47296755D01*
X140241309Y-47290101D01*
X140238829Y-47283171D01*
X140237041Y-47276032D01*
X140235961Y-47268751D01*
X140235600Y-47261400D01*
X140235600Y-47111400D01*
X140235961Y-47104049D01*
X140237041Y-47096768D01*
X140238829Y-47089629D01*
X140241309Y-47082699D01*
X140244456Y-47076045D01*
X140248240Y-47069732D01*
X140252624Y-47063821D01*
X140257567Y-47058367D01*
X140263021Y-47053424D01*
X140268932Y-47049040D01*
X140275245Y-47045256D01*
X140281899Y-47042109D01*
X140288829Y-47039629D01*
X140295968Y-47037841D01*
X140303249Y-47036761D01*
X140310600Y-47036400D01*
X141635600Y-47036400D01*
X141642951Y-47036761D01*
X141642951Y-47036761D01*
G37*
D15*
X140973100Y-47186400D03*
D10*
G36*
X141642951Y-47536761D02*
G01*
X141650232Y-47537841D01*
X141657371Y-47539629D01*
X141664301Y-47542109D01*
X141670955Y-47545256D01*
X141677268Y-47549040D01*
X141683179Y-47553424D01*
X141688633Y-47558367D01*
X141693576Y-47563821D01*
X141697960Y-47569732D01*
X141701744Y-47576045D01*
X141704891Y-47582699D01*
X141707371Y-47589629D01*
X141709159Y-47596768D01*
X141710239Y-47604049D01*
X141710600Y-47611400D01*
X141710600Y-47761400D01*
X141710239Y-47768751D01*
X141709159Y-47776032D01*
X141707371Y-47783171D01*
X141704891Y-47790101D01*
X141701744Y-47796755D01*
X141697960Y-47803068D01*
X141693576Y-47808979D01*
X141688633Y-47814433D01*
X141683179Y-47819376D01*
X141677268Y-47823760D01*
X141670955Y-47827544D01*
X141664301Y-47830691D01*
X141657371Y-47833171D01*
X141650232Y-47834959D01*
X141642951Y-47836039D01*
X141635600Y-47836400D01*
X140310600Y-47836400D01*
X140303249Y-47836039D01*
X140295968Y-47834959D01*
X140288829Y-47833171D01*
X140281899Y-47830691D01*
X140275245Y-47827544D01*
X140268932Y-47823760D01*
X140263021Y-47819376D01*
X140257567Y-47814433D01*
X140252624Y-47808979D01*
X140248240Y-47803068D01*
X140244456Y-47796755D01*
X140241309Y-47790101D01*
X140238829Y-47783171D01*
X140237041Y-47776032D01*
X140235961Y-47768751D01*
X140235600Y-47761400D01*
X140235600Y-47611400D01*
X140235961Y-47604049D01*
X140237041Y-47596768D01*
X140238829Y-47589629D01*
X140241309Y-47582699D01*
X140244456Y-47576045D01*
X140248240Y-47569732D01*
X140252624Y-47563821D01*
X140257567Y-47558367D01*
X140263021Y-47553424D01*
X140268932Y-47549040D01*
X140275245Y-47545256D01*
X140281899Y-47542109D01*
X140288829Y-47539629D01*
X140295968Y-47537841D01*
X140303249Y-47536761D01*
X140310600Y-47536400D01*
X141635600Y-47536400D01*
X141642951Y-47536761D01*
X141642951Y-47536761D01*
G37*
D15*
X140973100Y-47686400D03*
D10*
G36*
X141642951Y-48036761D02*
G01*
X141650232Y-48037841D01*
X141657371Y-48039629D01*
X141664301Y-48042109D01*
X141670955Y-48045256D01*
X141677268Y-48049040D01*
X141683179Y-48053424D01*
X141688633Y-48058367D01*
X141693576Y-48063821D01*
X141697960Y-48069732D01*
X141701744Y-48076045D01*
X141704891Y-48082699D01*
X141707371Y-48089629D01*
X141709159Y-48096768D01*
X141710239Y-48104049D01*
X141710600Y-48111400D01*
X141710600Y-48261400D01*
X141710239Y-48268751D01*
X141709159Y-48276032D01*
X141707371Y-48283171D01*
X141704891Y-48290101D01*
X141701744Y-48296755D01*
X141697960Y-48303068D01*
X141693576Y-48308979D01*
X141688633Y-48314433D01*
X141683179Y-48319376D01*
X141677268Y-48323760D01*
X141670955Y-48327544D01*
X141664301Y-48330691D01*
X141657371Y-48333171D01*
X141650232Y-48334959D01*
X141642951Y-48336039D01*
X141635600Y-48336400D01*
X140310600Y-48336400D01*
X140303249Y-48336039D01*
X140295968Y-48334959D01*
X140288829Y-48333171D01*
X140281899Y-48330691D01*
X140275245Y-48327544D01*
X140268932Y-48323760D01*
X140263021Y-48319376D01*
X140257567Y-48314433D01*
X140252624Y-48308979D01*
X140248240Y-48303068D01*
X140244456Y-48296755D01*
X140241309Y-48290101D01*
X140238829Y-48283171D01*
X140237041Y-48276032D01*
X140235961Y-48268751D01*
X140235600Y-48261400D01*
X140235600Y-48111400D01*
X140235961Y-48104049D01*
X140237041Y-48096768D01*
X140238829Y-48089629D01*
X140241309Y-48082699D01*
X140244456Y-48076045D01*
X140248240Y-48069732D01*
X140252624Y-48063821D01*
X140257567Y-48058367D01*
X140263021Y-48053424D01*
X140268932Y-48049040D01*
X140275245Y-48045256D01*
X140281899Y-48042109D01*
X140288829Y-48039629D01*
X140295968Y-48037841D01*
X140303249Y-48036761D01*
X140310600Y-48036400D01*
X141635600Y-48036400D01*
X141642951Y-48036761D01*
X141642951Y-48036761D01*
G37*
D15*
X140973100Y-48186400D03*
D10*
G36*
X141642951Y-48536761D02*
G01*
X141650232Y-48537841D01*
X141657371Y-48539629D01*
X141664301Y-48542109D01*
X141670955Y-48545256D01*
X141677268Y-48549040D01*
X141683179Y-48553424D01*
X141688633Y-48558367D01*
X141693576Y-48563821D01*
X141697960Y-48569732D01*
X141701744Y-48576045D01*
X141704891Y-48582699D01*
X141707371Y-48589629D01*
X141709159Y-48596768D01*
X141710239Y-48604049D01*
X141710600Y-48611400D01*
X141710600Y-48761400D01*
X141710239Y-48768751D01*
X141709159Y-48776032D01*
X141707371Y-48783171D01*
X141704891Y-48790101D01*
X141701744Y-48796755D01*
X141697960Y-48803068D01*
X141693576Y-48808979D01*
X141688633Y-48814433D01*
X141683179Y-48819376D01*
X141677268Y-48823760D01*
X141670955Y-48827544D01*
X141664301Y-48830691D01*
X141657371Y-48833171D01*
X141650232Y-48834959D01*
X141642951Y-48836039D01*
X141635600Y-48836400D01*
X140310600Y-48836400D01*
X140303249Y-48836039D01*
X140295968Y-48834959D01*
X140288829Y-48833171D01*
X140281899Y-48830691D01*
X140275245Y-48827544D01*
X140268932Y-48823760D01*
X140263021Y-48819376D01*
X140257567Y-48814433D01*
X140252624Y-48808979D01*
X140248240Y-48803068D01*
X140244456Y-48796755D01*
X140241309Y-48790101D01*
X140238829Y-48783171D01*
X140237041Y-48776032D01*
X140235961Y-48768751D01*
X140235600Y-48761400D01*
X140235600Y-48611400D01*
X140235961Y-48604049D01*
X140237041Y-48596768D01*
X140238829Y-48589629D01*
X140241309Y-48582699D01*
X140244456Y-48576045D01*
X140248240Y-48569732D01*
X140252624Y-48563821D01*
X140257567Y-48558367D01*
X140263021Y-48553424D01*
X140268932Y-48549040D01*
X140275245Y-48545256D01*
X140281899Y-48542109D01*
X140288829Y-48539629D01*
X140295968Y-48537841D01*
X140303249Y-48536761D01*
X140310600Y-48536400D01*
X141635600Y-48536400D01*
X141642951Y-48536761D01*
X141642951Y-48536761D01*
G37*
D15*
X140973100Y-48686400D03*
D10*
G36*
X141642951Y-49036761D02*
G01*
X141650232Y-49037841D01*
X141657371Y-49039629D01*
X141664301Y-49042109D01*
X141670955Y-49045256D01*
X141677268Y-49049040D01*
X141683179Y-49053424D01*
X141688633Y-49058367D01*
X141693576Y-49063821D01*
X141697960Y-49069732D01*
X141701744Y-49076045D01*
X141704891Y-49082699D01*
X141707371Y-49089629D01*
X141709159Y-49096768D01*
X141710239Y-49104049D01*
X141710600Y-49111400D01*
X141710600Y-49261400D01*
X141710239Y-49268751D01*
X141709159Y-49276032D01*
X141707371Y-49283171D01*
X141704891Y-49290101D01*
X141701744Y-49296755D01*
X141697960Y-49303068D01*
X141693576Y-49308979D01*
X141688633Y-49314433D01*
X141683179Y-49319376D01*
X141677268Y-49323760D01*
X141670955Y-49327544D01*
X141664301Y-49330691D01*
X141657371Y-49333171D01*
X141650232Y-49334959D01*
X141642951Y-49336039D01*
X141635600Y-49336400D01*
X140310600Y-49336400D01*
X140303249Y-49336039D01*
X140295968Y-49334959D01*
X140288829Y-49333171D01*
X140281899Y-49330691D01*
X140275245Y-49327544D01*
X140268932Y-49323760D01*
X140263021Y-49319376D01*
X140257567Y-49314433D01*
X140252624Y-49308979D01*
X140248240Y-49303068D01*
X140244456Y-49296755D01*
X140241309Y-49290101D01*
X140238829Y-49283171D01*
X140237041Y-49276032D01*
X140235961Y-49268751D01*
X140235600Y-49261400D01*
X140235600Y-49111400D01*
X140235961Y-49104049D01*
X140237041Y-49096768D01*
X140238829Y-49089629D01*
X140241309Y-49082699D01*
X140244456Y-49076045D01*
X140248240Y-49069732D01*
X140252624Y-49063821D01*
X140257567Y-49058367D01*
X140263021Y-49053424D01*
X140268932Y-49049040D01*
X140275245Y-49045256D01*
X140281899Y-49042109D01*
X140288829Y-49039629D01*
X140295968Y-49037841D01*
X140303249Y-49036761D01*
X140310600Y-49036400D01*
X141635600Y-49036400D01*
X141642951Y-49036761D01*
X141642951Y-49036761D01*
G37*
D15*
X140973100Y-49186400D03*
D10*
G36*
X141642951Y-49536761D02*
G01*
X141650232Y-49537841D01*
X141657371Y-49539629D01*
X141664301Y-49542109D01*
X141670955Y-49545256D01*
X141677268Y-49549040D01*
X141683179Y-49553424D01*
X141688633Y-49558367D01*
X141693576Y-49563821D01*
X141697960Y-49569732D01*
X141701744Y-49576045D01*
X141704891Y-49582699D01*
X141707371Y-49589629D01*
X141709159Y-49596768D01*
X141710239Y-49604049D01*
X141710600Y-49611400D01*
X141710600Y-49761400D01*
X141710239Y-49768751D01*
X141709159Y-49776032D01*
X141707371Y-49783171D01*
X141704891Y-49790101D01*
X141701744Y-49796755D01*
X141697960Y-49803068D01*
X141693576Y-49808979D01*
X141688633Y-49814433D01*
X141683179Y-49819376D01*
X141677268Y-49823760D01*
X141670955Y-49827544D01*
X141664301Y-49830691D01*
X141657371Y-49833171D01*
X141650232Y-49834959D01*
X141642951Y-49836039D01*
X141635600Y-49836400D01*
X140310600Y-49836400D01*
X140303249Y-49836039D01*
X140295968Y-49834959D01*
X140288829Y-49833171D01*
X140281899Y-49830691D01*
X140275245Y-49827544D01*
X140268932Y-49823760D01*
X140263021Y-49819376D01*
X140257567Y-49814433D01*
X140252624Y-49808979D01*
X140248240Y-49803068D01*
X140244456Y-49796755D01*
X140241309Y-49790101D01*
X140238829Y-49783171D01*
X140237041Y-49776032D01*
X140235961Y-49768751D01*
X140235600Y-49761400D01*
X140235600Y-49611400D01*
X140235961Y-49604049D01*
X140237041Y-49596768D01*
X140238829Y-49589629D01*
X140241309Y-49582699D01*
X140244456Y-49576045D01*
X140248240Y-49569732D01*
X140252624Y-49563821D01*
X140257567Y-49558367D01*
X140263021Y-49553424D01*
X140268932Y-49549040D01*
X140275245Y-49545256D01*
X140281899Y-49542109D01*
X140288829Y-49539629D01*
X140295968Y-49537841D01*
X140303249Y-49536761D01*
X140310600Y-49536400D01*
X141635600Y-49536400D01*
X141642951Y-49536761D01*
X141642951Y-49536761D01*
G37*
D15*
X140973100Y-49686400D03*
D10*
G36*
X141642951Y-50036761D02*
G01*
X141650232Y-50037841D01*
X141657371Y-50039629D01*
X141664301Y-50042109D01*
X141670955Y-50045256D01*
X141677268Y-50049040D01*
X141683179Y-50053424D01*
X141688633Y-50058367D01*
X141693576Y-50063821D01*
X141697960Y-50069732D01*
X141701744Y-50076045D01*
X141704891Y-50082699D01*
X141707371Y-50089629D01*
X141709159Y-50096768D01*
X141710239Y-50104049D01*
X141710600Y-50111400D01*
X141710600Y-50261400D01*
X141710239Y-50268751D01*
X141709159Y-50276032D01*
X141707371Y-50283171D01*
X141704891Y-50290101D01*
X141701744Y-50296755D01*
X141697960Y-50303068D01*
X141693576Y-50308979D01*
X141688633Y-50314433D01*
X141683179Y-50319376D01*
X141677268Y-50323760D01*
X141670955Y-50327544D01*
X141664301Y-50330691D01*
X141657371Y-50333171D01*
X141650232Y-50334959D01*
X141642951Y-50336039D01*
X141635600Y-50336400D01*
X140310600Y-50336400D01*
X140303249Y-50336039D01*
X140295968Y-50334959D01*
X140288829Y-50333171D01*
X140281899Y-50330691D01*
X140275245Y-50327544D01*
X140268932Y-50323760D01*
X140263021Y-50319376D01*
X140257567Y-50314433D01*
X140252624Y-50308979D01*
X140248240Y-50303068D01*
X140244456Y-50296755D01*
X140241309Y-50290101D01*
X140238829Y-50283171D01*
X140237041Y-50276032D01*
X140235961Y-50268751D01*
X140235600Y-50261400D01*
X140235600Y-50111400D01*
X140235961Y-50104049D01*
X140237041Y-50096768D01*
X140238829Y-50089629D01*
X140241309Y-50082699D01*
X140244456Y-50076045D01*
X140248240Y-50069732D01*
X140252624Y-50063821D01*
X140257567Y-50058367D01*
X140263021Y-50053424D01*
X140268932Y-50049040D01*
X140275245Y-50045256D01*
X140281899Y-50042109D01*
X140288829Y-50039629D01*
X140295968Y-50037841D01*
X140303249Y-50036761D01*
X140310600Y-50036400D01*
X141635600Y-50036400D01*
X141642951Y-50036761D01*
X141642951Y-50036761D01*
G37*
D15*
X140973100Y-50186400D03*
D10*
G36*
X141642951Y-50536761D02*
G01*
X141650232Y-50537841D01*
X141657371Y-50539629D01*
X141664301Y-50542109D01*
X141670955Y-50545256D01*
X141677268Y-50549040D01*
X141683179Y-50553424D01*
X141688633Y-50558367D01*
X141693576Y-50563821D01*
X141697960Y-50569732D01*
X141701744Y-50576045D01*
X141704891Y-50582699D01*
X141707371Y-50589629D01*
X141709159Y-50596768D01*
X141710239Y-50604049D01*
X141710600Y-50611400D01*
X141710600Y-50761400D01*
X141710239Y-50768751D01*
X141709159Y-50776032D01*
X141707371Y-50783171D01*
X141704891Y-50790101D01*
X141701744Y-50796755D01*
X141697960Y-50803068D01*
X141693576Y-50808979D01*
X141688633Y-50814433D01*
X141683179Y-50819376D01*
X141677268Y-50823760D01*
X141670955Y-50827544D01*
X141664301Y-50830691D01*
X141657371Y-50833171D01*
X141650232Y-50834959D01*
X141642951Y-50836039D01*
X141635600Y-50836400D01*
X140310600Y-50836400D01*
X140303249Y-50836039D01*
X140295968Y-50834959D01*
X140288829Y-50833171D01*
X140281899Y-50830691D01*
X140275245Y-50827544D01*
X140268932Y-50823760D01*
X140263021Y-50819376D01*
X140257567Y-50814433D01*
X140252624Y-50808979D01*
X140248240Y-50803068D01*
X140244456Y-50796755D01*
X140241309Y-50790101D01*
X140238829Y-50783171D01*
X140237041Y-50776032D01*
X140235961Y-50768751D01*
X140235600Y-50761400D01*
X140235600Y-50611400D01*
X140235961Y-50604049D01*
X140237041Y-50596768D01*
X140238829Y-50589629D01*
X140241309Y-50582699D01*
X140244456Y-50576045D01*
X140248240Y-50569732D01*
X140252624Y-50563821D01*
X140257567Y-50558367D01*
X140263021Y-50553424D01*
X140268932Y-50549040D01*
X140275245Y-50545256D01*
X140281899Y-50542109D01*
X140288829Y-50539629D01*
X140295968Y-50537841D01*
X140303249Y-50536761D01*
X140310600Y-50536400D01*
X141635600Y-50536400D01*
X141642951Y-50536761D01*
X141642951Y-50536761D01*
G37*
D15*
X140973100Y-50686400D03*
D10*
G36*
X141642951Y-51036761D02*
G01*
X141650232Y-51037841D01*
X141657371Y-51039629D01*
X141664301Y-51042109D01*
X141670955Y-51045256D01*
X141677268Y-51049040D01*
X141683179Y-51053424D01*
X141688633Y-51058367D01*
X141693576Y-51063821D01*
X141697960Y-51069732D01*
X141701744Y-51076045D01*
X141704891Y-51082699D01*
X141707371Y-51089629D01*
X141709159Y-51096768D01*
X141710239Y-51104049D01*
X141710600Y-51111400D01*
X141710600Y-51261400D01*
X141710239Y-51268751D01*
X141709159Y-51276032D01*
X141707371Y-51283171D01*
X141704891Y-51290101D01*
X141701744Y-51296755D01*
X141697960Y-51303068D01*
X141693576Y-51308979D01*
X141688633Y-51314433D01*
X141683179Y-51319376D01*
X141677268Y-51323760D01*
X141670955Y-51327544D01*
X141664301Y-51330691D01*
X141657371Y-51333171D01*
X141650232Y-51334959D01*
X141642951Y-51336039D01*
X141635600Y-51336400D01*
X140310600Y-51336400D01*
X140303249Y-51336039D01*
X140295968Y-51334959D01*
X140288829Y-51333171D01*
X140281899Y-51330691D01*
X140275245Y-51327544D01*
X140268932Y-51323760D01*
X140263021Y-51319376D01*
X140257567Y-51314433D01*
X140252624Y-51308979D01*
X140248240Y-51303068D01*
X140244456Y-51296755D01*
X140241309Y-51290101D01*
X140238829Y-51283171D01*
X140237041Y-51276032D01*
X140235961Y-51268751D01*
X140235600Y-51261400D01*
X140235600Y-51111400D01*
X140235961Y-51104049D01*
X140237041Y-51096768D01*
X140238829Y-51089629D01*
X140241309Y-51082699D01*
X140244456Y-51076045D01*
X140248240Y-51069732D01*
X140252624Y-51063821D01*
X140257567Y-51058367D01*
X140263021Y-51053424D01*
X140268932Y-51049040D01*
X140275245Y-51045256D01*
X140281899Y-51042109D01*
X140288829Y-51039629D01*
X140295968Y-51037841D01*
X140303249Y-51036761D01*
X140310600Y-51036400D01*
X141635600Y-51036400D01*
X141642951Y-51036761D01*
X141642951Y-51036761D01*
G37*
D15*
X140973100Y-51186400D03*
D10*
G36*
X141642951Y-51536761D02*
G01*
X141650232Y-51537841D01*
X141657371Y-51539629D01*
X141664301Y-51542109D01*
X141670955Y-51545256D01*
X141677268Y-51549040D01*
X141683179Y-51553424D01*
X141688633Y-51558367D01*
X141693576Y-51563821D01*
X141697960Y-51569732D01*
X141701744Y-51576045D01*
X141704891Y-51582699D01*
X141707371Y-51589629D01*
X141709159Y-51596768D01*
X141710239Y-51604049D01*
X141710600Y-51611400D01*
X141710600Y-51761400D01*
X141710239Y-51768751D01*
X141709159Y-51776032D01*
X141707371Y-51783171D01*
X141704891Y-51790101D01*
X141701744Y-51796755D01*
X141697960Y-51803068D01*
X141693576Y-51808979D01*
X141688633Y-51814433D01*
X141683179Y-51819376D01*
X141677268Y-51823760D01*
X141670955Y-51827544D01*
X141664301Y-51830691D01*
X141657371Y-51833171D01*
X141650232Y-51834959D01*
X141642951Y-51836039D01*
X141635600Y-51836400D01*
X140310600Y-51836400D01*
X140303249Y-51836039D01*
X140295968Y-51834959D01*
X140288829Y-51833171D01*
X140281899Y-51830691D01*
X140275245Y-51827544D01*
X140268932Y-51823760D01*
X140263021Y-51819376D01*
X140257567Y-51814433D01*
X140252624Y-51808979D01*
X140248240Y-51803068D01*
X140244456Y-51796755D01*
X140241309Y-51790101D01*
X140238829Y-51783171D01*
X140237041Y-51776032D01*
X140235961Y-51768751D01*
X140235600Y-51761400D01*
X140235600Y-51611400D01*
X140235961Y-51604049D01*
X140237041Y-51596768D01*
X140238829Y-51589629D01*
X140241309Y-51582699D01*
X140244456Y-51576045D01*
X140248240Y-51569732D01*
X140252624Y-51563821D01*
X140257567Y-51558367D01*
X140263021Y-51553424D01*
X140268932Y-51549040D01*
X140275245Y-51545256D01*
X140281899Y-51542109D01*
X140288829Y-51539629D01*
X140295968Y-51537841D01*
X140303249Y-51536761D01*
X140310600Y-51536400D01*
X141635600Y-51536400D01*
X141642951Y-51536761D01*
X141642951Y-51536761D01*
G37*
D15*
X140973100Y-51686400D03*
D10*
G36*
X141642951Y-52036761D02*
G01*
X141650232Y-52037841D01*
X141657371Y-52039629D01*
X141664301Y-52042109D01*
X141670955Y-52045256D01*
X141677268Y-52049040D01*
X141683179Y-52053424D01*
X141688633Y-52058367D01*
X141693576Y-52063821D01*
X141697960Y-52069732D01*
X141701744Y-52076045D01*
X141704891Y-52082699D01*
X141707371Y-52089629D01*
X141709159Y-52096768D01*
X141710239Y-52104049D01*
X141710600Y-52111400D01*
X141710600Y-52261400D01*
X141710239Y-52268751D01*
X141709159Y-52276032D01*
X141707371Y-52283171D01*
X141704891Y-52290101D01*
X141701744Y-52296755D01*
X141697960Y-52303068D01*
X141693576Y-52308979D01*
X141688633Y-52314433D01*
X141683179Y-52319376D01*
X141677268Y-52323760D01*
X141670955Y-52327544D01*
X141664301Y-52330691D01*
X141657371Y-52333171D01*
X141650232Y-52334959D01*
X141642951Y-52336039D01*
X141635600Y-52336400D01*
X140310600Y-52336400D01*
X140303249Y-52336039D01*
X140295968Y-52334959D01*
X140288829Y-52333171D01*
X140281899Y-52330691D01*
X140275245Y-52327544D01*
X140268932Y-52323760D01*
X140263021Y-52319376D01*
X140257567Y-52314433D01*
X140252624Y-52308979D01*
X140248240Y-52303068D01*
X140244456Y-52296755D01*
X140241309Y-52290101D01*
X140238829Y-52283171D01*
X140237041Y-52276032D01*
X140235961Y-52268751D01*
X140235600Y-52261400D01*
X140235600Y-52111400D01*
X140235961Y-52104049D01*
X140237041Y-52096768D01*
X140238829Y-52089629D01*
X140241309Y-52082699D01*
X140244456Y-52076045D01*
X140248240Y-52069732D01*
X140252624Y-52063821D01*
X140257567Y-52058367D01*
X140263021Y-52053424D01*
X140268932Y-52049040D01*
X140275245Y-52045256D01*
X140281899Y-52042109D01*
X140288829Y-52039629D01*
X140295968Y-52037841D01*
X140303249Y-52036761D01*
X140310600Y-52036400D01*
X141635600Y-52036400D01*
X141642951Y-52036761D01*
X141642951Y-52036761D01*
G37*
D15*
X140973100Y-52186400D03*
D10*
G36*
X141642951Y-52536761D02*
G01*
X141650232Y-52537841D01*
X141657371Y-52539629D01*
X141664301Y-52542109D01*
X141670955Y-52545256D01*
X141677268Y-52549040D01*
X141683179Y-52553424D01*
X141688633Y-52558367D01*
X141693576Y-52563821D01*
X141697960Y-52569732D01*
X141701744Y-52576045D01*
X141704891Y-52582699D01*
X141707371Y-52589629D01*
X141709159Y-52596768D01*
X141710239Y-52604049D01*
X141710600Y-52611400D01*
X141710600Y-52761400D01*
X141710239Y-52768751D01*
X141709159Y-52776032D01*
X141707371Y-52783171D01*
X141704891Y-52790101D01*
X141701744Y-52796755D01*
X141697960Y-52803068D01*
X141693576Y-52808979D01*
X141688633Y-52814433D01*
X141683179Y-52819376D01*
X141677268Y-52823760D01*
X141670955Y-52827544D01*
X141664301Y-52830691D01*
X141657371Y-52833171D01*
X141650232Y-52834959D01*
X141642951Y-52836039D01*
X141635600Y-52836400D01*
X140310600Y-52836400D01*
X140303249Y-52836039D01*
X140295968Y-52834959D01*
X140288829Y-52833171D01*
X140281899Y-52830691D01*
X140275245Y-52827544D01*
X140268932Y-52823760D01*
X140263021Y-52819376D01*
X140257567Y-52814433D01*
X140252624Y-52808979D01*
X140248240Y-52803068D01*
X140244456Y-52796755D01*
X140241309Y-52790101D01*
X140238829Y-52783171D01*
X140237041Y-52776032D01*
X140235961Y-52768751D01*
X140235600Y-52761400D01*
X140235600Y-52611400D01*
X140235961Y-52604049D01*
X140237041Y-52596768D01*
X140238829Y-52589629D01*
X140241309Y-52582699D01*
X140244456Y-52576045D01*
X140248240Y-52569732D01*
X140252624Y-52563821D01*
X140257567Y-52558367D01*
X140263021Y-52553424D01*
X140268932Y-52549040D01*
X140275245Y-52545256D01*
X140281899Y-52542109D01*
X140288829Y-52539629D01*
X140295968Y-52537841D01*
X140303249Y-52536761D01*
X140310600Y-52536400D01*
X141635600Y-52536400D01*
X141642951Y-52536761D01*
X141642951Y-52536761D01*
G37*
D15*
X140973100Y-52686400D03*
D10*
G36*
X142467951Y-53361761D02*
G01*
X142475232Y-53362841D01*
X142482371Y-53364629D01*
X142489301Y-53367109D01*
X142495955Y-53370256D01*
X142502268Y-53374040D01*
X142508179Y-53378424D01*
X142513633Y-53383367D01*
X142518576Y-53388821D01*
X142522960Y-53394732D01*
X142526744Y-53401045D01*
X142529891Y-53407699D01*
X142532371Y-53414629D01*
X142534159Y-53421768D01*
X142535239Y-53429049D01*
X142535600Y-53436400D01*
X142535600Y-54761400D01*
X142535239Y-54768751D01*
X142534159Y-54776032D01*
X142532371Y-54783171D01*
X142529891Y-54790101D01*
X142526744Y-54796755D01*
X142522960Y-54803068D01*
X142518576Y-54808979D01*
X142513633Y-54814433D01*
X142508179Y-54819376D01*
X142502268Y-54823760D01*
X142495955Y-54827544D01*
X142489301Y-54830691D01*
X142482371Y-54833171D01*
X142475232Y-54834959D01*
X142467951Y-54836039D01*
X142460600Y-54836400D01*
X142310600Y-54836400D01*
X142303249Y-54836039D01*
X142295968Y-54834959D01*
X142288829Y-54833171D01*
X142281899Y-54830691D01*
X142275245Y-54827544D01*
X142268932Y-54823760D01*
X142263021Y-54819376D01*
X142257567Y-54814433D01*
X142252624Y-54808979D01*
X142248240Y-54803068D01*
X142244456Y-54796755D01*
X142241309Y-54790101D01*
X142238829Y-54783171D01*
X142237041Y-54776032D01*
X142235961Y-54768751D01*
X142235600Y-54761400D01*
X142235600Y-53436400D01*
X142235961Y-53429049D01*
X142237041Y-53421768D01*
X142238829Y-53414629D01*
X142241309Y-53407699D01*
X142244456Y-53401045D01*
X142248240Y-53394732D01*
X142252624Y-53388821D01*
X142257567Y-53383367D01*
X142263021Y-53378424D01*
X142268932Y-53374040D01*
X142275245Y-53370256D01*
X142281899Y-53367109D01*
X142288829Y-53364629D01*
X142295968Y-53362841D01*
X142303249Y-53361761D01*
X142310600Y-53361400D01*
X142460600Y-53361400D01*
X142467951Y-53361761D01*
X142467951Y-53361761D01*
G37*
D15*
X142385600Y-54098900D03*
D10*
G36*
X142967951Y-53361761D02*
G01*
X142975232Y-53362841D01*
X142982371Y-53364629D01*
X142989301Y-53367109D01*
X142995955Y-53370256D01*
X143002268Y-53374040D01*
X143008179Y-53378424D01*
X143013633Y-53383367D01*
X143018576Y-53388821D01*
X143022960Y-53394732D01*
X143026744Y-53401045D01*
X143029891Y-53407699D01*
X143032371Y-53414629D01*
X143034159Y-53421768D01*
X143035239Y-53429049D01*
X143035600Y-53436400D01*
X143035600Y-54761400D01*
X143035239Y-54768751D01*
X143034159Y-54776032D01*
X143032371Y-54783171D01*
X143029891Y-54790101D01*
X143026744Y-54796755D01*
X143022960Y-54803068D01*
X143018576Y-54808979D01*
X143013633Y-54814433D01*
X143008179Y-54819376D01*
X143002268Y-54823760D01*
X142995955Y-54827544D01*
X142989301Y-54830691D01*
X142982371Y-54833171D01*
X142975232Y-54834959D01*
X142967951Y-54836039D01*
X142960600Y-54836400D01*
X142810600Y-54836400D01*
X142803249Y-54836039D01*
X142795968Y-54834959D01*
X142788829Y-54833171D01*
X142781899Y-54830691D01*
X142775245Y-54827544D01*
X142768932Y-54823760D01*
X142763021Y-54819376D01*
X142757567Y-54814433D01*
X142752624Y-54808979D01*
X142748240Y-54803068D01*
X142744456Y-54796755D01*
X142741309Y-54790101D01*
X142738829Y-54783171D01*
X142737041Y-54776032D01*
X142735961Y-54768751D01*
X142735600Y-54761400D01*
X142735600Y-53436400D01*
X142735961Y-53429049D01*
X142737041Y-53421768D01*
X142738829Y-53414629D01*
X142741309Y-53407699D01*
X142744456Y-53401045D01*
X142748240Y-53394732D01*
X142752624Y-53388821D01*
X142757567Y-53383367D01*
X142763021Y-53378424D01*
X142768932Y-53374040D01*
X142775245Y-53370256D01*
X142781899Y-53367109D01*
X142788829Y-53364629D01*
X142795968Y-53362841D01*
X142803249Y-53361761D01*
X142810600Y-53361400D01*
X142960600Y-53361400D01*
X142967951Y-53361761D01*
X142967951Y-53361761D01*
G37*
D15*
X142885600Y-54098900D03*
D10*
G36*
X143467951Y-53361761D02*
G01*
X143475232Y-53362841D01*
X143482371Y-53364629D01*
X143489301Y-53367109D01*
X143495955Y-53370256D01*
X143502268Y-53374040D01*
X143508179Y-53378424D01*
X143513633Y-53383367D01*
X143518576Y-53388821D01*
X143522960Y-53394732D01*
X143526744Y-53401045D01*
X143529891Y-53407699D01*
X143532371Y-53414629D01*
X143534159Y-53421768D01*
X143535239Y-53429049D01*
X143535600Y-53436400D01*
X143535600Y-54761400D01*
X143535239Y-54768751D01*
X143534159Y-54776032D01*
X143532371Y-54783171D01*
X143529891Y-54790101D01*
X143526744Y-54796755D01*
X143522960Y-54803068D01*
X143518576Y-54808979D01*
X143513633Y-54814433D01*
X143508179Y-54819376D01*
X143502268Y-54823760D01*
X143495955Y-54827544D01*
X143489301Y-54830691D01*
X143482371Y-54833171D01*
X143475232Y-54834959D01*
X143467951Y-54836039D01*
X143460600Y-54836400D01*
X143310600Y-54836400D01*
X143303249Y-54836039D01*
X143295968Y-54834959D01*
X143288829Y-54833171D01*
X143281899Y-54830691D01*
X143275245Y-54827544D01*
X143268932Y-54823760D01*
X143263021Y-54819376D01*
X143257567Y-54814433D01*
X143252624Y-54808979D01*
X143248240Y-54803068D01*
X143244456Y-54796755D01*
X143241309Y-54790101D01*
X143238829Y-54783171D01*
X143237041Y-54776032D01*
X143235961Y-54768751D01*
X143235600Y-54761400D01*
X143235600Y-53436400D01*
X143235961Y-53429049D01*
X143237041Y-53421768D01*
X143238829Y-53414629D01*
X143241309Y-53407699D01*
X143244456Y-53401045D01*
X143248240Y-53394732D01*
X143252624Y-53388821D01*
X143257567Y-53383367D01*
X143263021Y-53378424D01*
X143268932Y-53374040D01*
X143275245Y-53370256D01*
X143281899Y-53367109D01*
X143288829Y-53364629D01*
X143295968Y-53362841D01*
X143303249Y-53361761D01*
X143310600Y-53361400D01*
X143460600Y-53361400D01*
X143467951Y-53361761D01*
X143467951Y-53361761D01*
G37*
D15*
X143385600Y-54098900D03*
D10*
G36*
X143967951Y-53361761D02*
G01*
X143975232Y-53362841D01*
X143982371Y-53364629D01*
X143989301Y-53367109D01*
X143995955Y-53370256D01*
X144002268Y-53374040D01*
X144008179Y-53378424D01*
X144013633Y-53383367D01*
X144018576Y-53388821D01*
X144022960Y-53394732D01*
X144026744Y-53401045D01*
X144029891Y-53407699D01*
X144032371Y-53414629D01*
X144034159Y-53421768D01*
X144035239Y-53429049D01*
X144035600Y-53436400D01*
X144035600Y-54761400D01*
X144035239Y-54768751D01*
X144034159Y-54776032D01*
X144032371Y-54783171D01*
X144029891Y-54790101D01*
X144026744Y-54796755D01*
X144022960Y-54803068D01*
X144018576Y-54808979D01*
X144013633Y-54814433D01*
X144008179Y-54819376D01*
X144002268Y-54823760D01*
X143995955Y-54827544D01*
X143989301Y-54830691D01*
X143982371Y-54833171D01*
X143975232Y-54834959D01*
X143967951Y-54836039D01*
X143960600Y-54836400D01*
X143810600Y-54836400D01*
X143803249Y-54836039D01*
X143795968Y-54834959D01*
X143788829Y-54833171D01*
X143781899Y-54830691D01*
X143775245Y-54827544D01*
X143768932Y-54823760D01*
X143763021Y-54819376D01*
X143757567Y-54814433D01*
X143752624Y-54808979D01*
X143748240Y-54803068D01*
X143744456Y-54796755D01*
X143741309Y-54790101D01*
X143738829Y-54783171D01*
X143737041Y-54776032D01*
X143735961Y-54768751D01*
X143735600Y-54761400D01*
X143735600Y-53436400D01*
X143735961Y-53429049D01*
X143737041Y-53421768D01*
X143738829Y-53414629D01*
X143741309Y-53407699D01*
X143744456Y-53401045D01*
X143748240Y-53394732D01*
X143752624Y-53388821D01*
X143757567Y-53383367D01*
X143763021Y-53378424D01*
X143768932Y-53374040D01*
X143775245Y-53370256D01*
X143781899Y-53367109D01*
X143788829Y-53364629D01*
X143795968Y-53362841D01*
X143803249Y-53361761D01*
X143810600Y-53361400D01*
X143960600Y-53361400D01*
X143967951Y-53361761D01*
X143967951Y-53361761D01*
G37*
D15*
X143885600Y-54098900D03*
D10*
G36*
X144467951Y-53361761D02*
G01*
X144475232Y-53362841D01*
X144482371Y-53364629D01*
X144489301Y-53367109D01*
X144495955Y-53370256D01*
X144502268Y-53374040D01*
X144508179Y-53378424D01*
X144513633Y-53383367D01*
X144518576Y-53388821D01*
X144522960Y-53394732D01*
X144526744Y-53401045D01*
X144529891Y-53407699D01*
X144532371Y-53414629D01*
X144534159Y-53421768D01*
X144535239Y-53429049D01*
X144535600Y-53436400D01*
X144535600Y-54761400D01*
X144535239Y-54768751D01*
X144534159Y-54776032D01*
X144532371Y-54783171D01*
X144529891Y-54790101D01*
X144526744Y-54796755D01*
X144522960Y-54803068D01*
X144518576Y-54808979D01*
X144513633Y-54814433D01*
X144508179Y-54819376D01*
X144502268Y-54823760D01*
X144495955Y-54827544D01*
X144489301Y-54830691D01*
X144482371Y-54833171D01*
X144475232Y-54834959D01*
X144467951Y-54836039D01*
X144460600Y-54836400D01*
X144310600Y-54836400D01*
X144303249Y-54836039D01*
X144295968Y-54834959D01*
X144288829Y-54833171D01*
X144281899Y-54830691D01*
X144275245Y-54827544D01*
X144268932Y-54823760D01*
X144263021Y-54819376D01*
X144257567Y-54814433D01*
X144252624Y-54808979D01*
X144248240Y-54803068D01*
X144244456Y-54796755D01*
X144241309Y-54790101D01*
X144238829Y-54783171D01*
X144237041Y-54776032D01*
X144235961Y-54768751D01*
X144235600Y-54761400D01*
X144235600Y-53436400D01*
X144235961Y-53429049D01*
X144237041Y-53421768D01*
X144238829Y-53414629D01*
X144241309Y-53407699D01*
X144244456Y-53401045D01*
X144248240Y-53394732D01*
X144252624Y-53388821D01*
X144257567Y-53383367D01*
X144263021Y-53378424D01*
X144268932Y-53374040D01*
X144275245Y-53370256D01*
X144281899Y-53367109D01*
X144288829Y-53364629D01*
X144295968Y-53362841D01*
X144303249Y-53361761D01*
X144310600Y-53361400D01*
X144460600Y-53361400D01*
X144467951Y-53361761D01*
X144467951Y-53361761D01*
G37*
D15*
X144385600Y-54098900D03*
D10*
G36*
X144967951Y-53361761D02*
G01*
X144975232Y-53362841D01*
X144982371Y-53364629D01*
X144989301Y-53367109D01*
X144995955Y-53370256D01*
X145002268Y-53374040D01*
X145008179Y-53378424D01*
X145013633Y-53383367D01*
X145018576Y-53388821D01*
X145022960Y-53394732D01*
X145026744Y-53401045D01*
X145029891Y-53407699D01*
X145032371Y-53414629D01*
X145034159Y-53421768D01*
X145035239Y-53429049D01*
X145035600Y-53436400D01*
X145035600Y-54761400D01*
X145035239Y-54768751D01*
X145034159Y-54776032D01*
X145032371Y-54783171D01*
X145029891Y-54790101D01*
X145026744Y-54796755D01*
X145022960Y-54803068D01*
X145018576Y-54808979D01*
X145013633Y-54814433D01*
X145008179Y-54819376D01*
X145002268Y-54823760D01*
X144995955Y-54827544D01*
X144989301Y-54830691D01*
X144982371Y-54833171D01*
X144975232Y-54834959D01*
X144967951Y-54836039D01*
X144960600Y-54836400D01*
X144810600Y-54836400D01*
X144803249Y-54836039D01*
X144795968Y-54834959D01*
X144788829Y-54833171D01*
X144781899Y-54830691D01*
X144775245Y-54827544D01*
X144768932Y-54823760D01*
X144763021Y-54819376D01*
X144757567Y-54814433D01*
X144752624Y-54808979D01*
X144748240Y-54803068D01*
X144744456Y-54796755D01*
X144741309Y-54790101D01*
X144738829Y-54783171D01*
X144737041Y-54776032D01*
X144735961Y-54768751D01*
X144735600Y-54761400D01*
X144735600Y-53436400D01*
X144735961Y-53429049D01*
X144737041Y-53421768D01*
X144738829Y-53414629D01*
X144741309Y-53407699D01*
X144744456Y-53401045D01*
X144748240Y-53394732D01*
X144752624Y-53388821D01*
X144757567Y-53383367D01*
X144763021Y-53378424D01*
X144768932Y-53374040D01*
X144775245Y-53370256D01*
X144781899Y-53367109D01*
X144788829Y-53364629D01*
X144795968Y-53362841D01*
X144803249Y-53361761D01*
X144810600Y-53361400D01*
X144960600Y-53361400D01*
X144967951Y-53361761D01*
X144967951Y-53361761D01*
G37*
D15*
X144885600Y-54098900D03*
D10*
G36*
X145467951Y-53361761D02*
G01*
X145475232Y-53362841D01*
X145482371Y-53364629D01*
X145489301Y-53367109D01*
X145495955Y-53370256D01*
X145502268Y-53374040D01*
X145508179Y-53378424D01*
X145513633Y-53383367D01*
X145518576Y-53388821D01*
X145522960Y-53394732D01*
X145526744Y-53401045D01*
X145529891Y-53407699D01*
X145532371Y-53414629D01*
X145534159Y-53421768D01*
X145535239Y-53429049D01*
X145535600Y-53436400D01*
X145535600Y-54761400D01*
X145535239Y-54768751D01*
X145534159Y-54776032D01*
X145532371Y-54783171D01*
X145529891Y-54790101D01*
X145526744Y-54796755D01*
X145522960Y-54803068D01*
X145518576Y-54808979D01*
X145513633Y-54814433D01*
X145508179Y-54819376D01*
X145502268Y-54823760D01*
X145495955Y-54827544D01*
X145489301Y-54830691D01*
X145482371Y-54833171D01*
X145475232Y-54834959D01*
X145467951Y-54836039D01*
X145460600Y-54836400D01*
X145310600Y-54836400D01*
X145303249Y-54836039D01*
X145295968Y-54834959D01*
X145288829Y-54833171D01*
X145281899Y-54830691D01*
X145275245Y-54827544D01*
X145268932Y-54823760D01*
X145263021Y-54819376D01*
X145257567Y-54814433D01*
X145252624Y-54808979D01*
X145248240Y-54803068D01*
X145244456Y-54796755D01*
X145241309Y-54790101D01*
X145238829Y-54783171D01*
X145237041Y-54776032D01*
X145235961Y-54768751D01*
X145235600Y-54761400D01*
X145235600Y-53436400D01*
X145235961Y-53429049D01*
X145237041Y-53421768D01*
X145238829Y-53414629D01*
X145241309Y-53407699D01*
X145244456Y-53401045D01*
X145248240Y-53394732D01*
X145252624Y-53388821D01*
X145257567Y-53383367D01*
X145263021Y-53378424D01*
X145268932Y-53374040D01*
X145275245Y-53370256D01*
X145281899Y-53367109D01*
X145288829Y-53364629D01*
X145295968Y-53362841D01*
X145303249Y-53361761D01*
X145310600Y-53361400D01*
X145460600Y-53361400D01*
X145467951Y-53361761D01*
X145467951Y-53361761D01*
G37*
D15*
X145385600Y-54098900D03*
D10*
G36*
X145967951Y-53361761D02*
G01*
X145975232Y-53362841D01*
X145982371Y-53364629D01*
X145989301Y-53367109D01*
X145995955Y-53370256D01*
X146002268Y-53374040D01*
X146008179Y-53378424D01*
X146013633Y-53383367D01*
X146018576Y-53388821D01*
X146022960Y-53394732D01*
X146026744Y-53401045D01*
X146029891Y-53407699D01*
X146032371Y-53414629D01*
X146034159Y-53421768D01*
X146035239Y-53429049D01*
X146035600Y-53436400D01*
X146035600Y-54761400D01*
X146035239Y-54768751D01*
X146034159Y-54776032D01*
X146032371Y-54783171D01*
X146029891Y-54790101D01*
X146026744Y-54796755D01*
X146022960Y-54803068D01*
X146018576Y-54808979D01*
X146013633Y-54814433D01*
X146008179Y-54819376D01*
X146002268Y-54823760D01*
X145995955Y-54827544D01*
X145989301Y-54830691D01*
X145982371Y-54833171D01*
X145975232Y-54834959D01*
X145967951Y-54836039D01*
X145960600Y-54836400D01*
X145810600Y-54836400D01*
X145803249Y-54836039D01*
X145795968Y-54834959D01*
X145788829Y-54833171D01*
X145781899Y-54830691D01*
X145775245Y-54827544D01*
X145768932Y-54823760D01*
X145763021Y-54819376D01*
X145757567Y-54814433D01*
X145752624Y-54808979D01*
X145748240Y-54803068D01*
X145744456Y-54796755D01*
X145741309Y-54790101D01*
X145738829Y-54783171D01*
X145737041Y-54776032D01*
X145735961Y-54768751D01*
X145735600Y-54761400D01*
X145735600Y-53436400D01*
X145735961Y-53429049D01*
X145737041Y-53421768D01*
X145738829Y-53414629D01*
X145741309Y-53407699D01*
X145744456Y-53401045D01*
X145748240Y-53394732D01*
X145752624Y-53388821D01*
X145757567Y-53383367D01*
X145763021Y-53378424D01*
X145768932Y-53374040D01*
X145775245Y-53370256D01*
X145781899Y-53367109D01*
X145788829Y-53364629D01*
X145795968Y-53362841D01*
X145803249Y-53361761D01*
X145810600Y-53361400D01*
X145960600Y-53361400D01*
X145967951Y-53361761D01*
X145967951Y-53361761D01*
G37*
D15*
X145885600Y-54098900D03*
D10*
G36*
X146467951Y-53361761D02*
G01*
X146475232Y-53362841D01*
X146482371Y-53364629D01*
X146489301Y-53367109D01*
X146495955Y-53370256D01*
X146502268Y-53374040D01*
X146508179Y-53378424D01*
X146513633Y-53383367D01*
X146518576Y-53388821D01*
X146522960Y-53394732D01*
X146526744Y-53401045D01*
X146529891Y-53407699D01*
X146532371Y-53414629D01*
X146534159Y-53421768D01*
X146535239Y-53429049D01*
X146535600Y-53436400D01*
X146535600Y-54761400D01*
X146535239Y-54768751D01*
X146534159Y-54776032D01*
X146532371Y-54783171D01*
X146529891Y-54790101D01*
X146526744Y-54796755D01*
X146522960Y-54803068D01*
X146518576Y-54808979D01*
X146513633Y-54814433D01*
X146508179Y-54819376D01*
X146502268Y-54823760D01*
X146495955Y-54827544D01*
X146489301Y-54830691D01*
X146482371Y-54833171D01*
X146475232Y-54834959D01*
X146467951Y-54836039D01*
X146460600Y-54836400D01*
X146310600Y-54836400D01*
X146303249Y-54836039D01*
X146295968Y-54834959D01*
X146288829Y-54833171D01*
X146281899Y-54830691D01*
X146275245Y-54827544D01*
X146268932Y-54823760D01*
X146263021Y-54819376D01*
X146257567Y-54814433D01*
X146252624Y-54808979D01*
X146248240Y-54803068D01*
X146244456Y-54796755D01*
X146241309Y-54790101D01*
X146238829Y-54783171D01*
X146237041Y-54776032D01*
X146235961Y-54768751D01*
X146235600Y-54761400D01*
X146235600Y-53436400D01*
X146235961Y-53429049D01*
X146237041Y-53421768D01*
X146238829Y-53414629D01*
X146241309Y-53407699D01*
X146244456Y-53401045D01*
X146248240Y-53394732D01*
X146252624Y-53388821D01*
X146257567Y-53383367D01*
X146263021Y-53378424D01*
X146268932Y-53374040D01*
X146275245Y-53370256D01*
X146281899Y-53367109D01*
X146288829Y-53364629D01*
X146295968Y-53362841D01*
X146303249Y-53361761D01*
X146310600Y-53361400D01*
X146460600Y-53361400D01*
X146467951Y-53361761D01*
X146467951Y-53361761D01*
G37*
D15*
X146385600Y-54098900D03*
D10*
G36*
X146967951Y-53361761D02*
G01*
X146975232Y-53362841D01*
X146982371Y-53364629D01*
X146989301Y-53367109D01*
X146995955Y-53370256D01*
X147002268Y-53374040D01*
X147008179Y-53378424D01*
X147013633Y-53383367D01*
X147018576Y-53388821D01*
X147022960Y-53394732D01*
X147026744Y-53401045D01*
X147029891Y-53407699D01*
X147032371Y-53414629D01*
X147034159Y-53421768D01*
X147035239Y-53429049D01*
X147035600Y-53436400D01*
X147035600Y-54761400D01*
X147035239Y-54768751D01*
X147034159Y-54776032D01*
X147032371Y-54783171D01*
X147029891Y-54790101D01*
X147026744Y-54796755D01*
X147022960Y-54803068D01*
X147018576Y-54808979D01*
X147013633Y-54814433D01*
X147008179Y-54819376D01*
X147002268Y-54823760D01*
X146995955Y-54827544D01*
X146989301Y-54830691D01*
X146982371Y-54833171D01*
X146975232Y-54834959D01*
X146967951Y-54836039D01*
X146960600Y-54836400D01*
X146810600Y-54836400D01*
X146803249Y-54836039D01*
X146795968Y-54834959D01*
X146788829Y-54833171D01*
X146781899Y-54830691D01*
X146775245Y-54827544D01*
X146768932Y-54823760D01*
X146763021Y-54819376D01*
X146757567Y-54814433D01*
X146752624Y-54808979D01*
X146748240Y-54803068D01*
X146744456Y-54796755D01*
X146741309Y-54790101D01*
X146738829Y-54783171D01*
X146737041Y-54776032D01*
X146735961Y-54768751D01*
X146735600Y-54761400D01*
X146735600Y-53436400D01*
X146735961Y-53429049D01*
X146737041Y-53421768D01*
X146738829Y-53414629D01*
X146741309Y-53407699D01*
X146744456Y-53401045D01*
X146748240Y-53394732D01*
X146752624Y-53388821D01*
X146757567Y-53383367D01*
X146763021Y-53378424D01*
X146768932Y-53374040D01*
X146775245Y-53370256D01*
X146781899Y-53367109D01*
X146788829Y-53364629D01*
X146795968Y-53362841D01*
X146803249Y-53361761D01*
X146810600Y-53361400D01*
X146960600Y-53361400D01*
X146967951Y-53361761D01*
X146967951Y-53361761D01*
G37*
D15*
X146885600Y-54098900D03*
D10*
G36*
X147467951Y-53361761D02*
G01*
X147475232Y-53362841D01*
X147482371Y-53364629D01*
X147489301Y-53367109D01*
X147495955Y-53370256D01*
X147502268Y-53374040D01*
X147508179Y-53378424D01*
X147513633Y-53383367D01*
X147518576Y-53388821D01*
X147522960Y-53394732D01*
X147526744Y-53401045D01*
X147529891Y-53407699D01*
X147532371Y-53414629D01*
X147534159Y-53421768D01*
X147535239Y-53429049D01*
X147535600Y-53436400D01*
X147535600Y-54761400D01*
X147535239Y-54768751D01*
X147534159Y-54776032D01*
X147532371Y-54783171D01*
X147529891Y-54790101D01*
X147526744Y-54796755D01*
X147522960Y-54803068D01*
X147518576Y-54808979D01*
X147513633Y-54814433D01*
X147508179Y-54819376D01*
X147502268Y-54823760D01*
X147495955Y-54827544D01*
X147489301Y-54830691D01*
X147482371Y-54833171D01*
X147475232Y-54834959D01*
X147467951Y-54836039D01*
X147460600Y-54836400D01*
X147310600Y-54836400D01*
X147303249Y-54836039D01*
X147295968Y-54834959D01*
X147288829Y-54833171D01*
X147281899Y-54830691D01*
X147275245Y-54827544D01*
X147268932Y-54823760D01*
X147263021Y-54819376D01*
X147257567Y-54814433D01*
X147252624Y-54808979D01*
X147248240Y-54803068D01*
X147244456Y-54796755D01*
X147241309Y-54790101D01*
X147238829Y-54783171D01*
X147237041Y-54776032D01*
X147235961Y-54768751D01*
X147235600Y-54761400D01*
X147235600Y-53436400D01*
X147235961Y-53429049D01*
X147237041Y-53421768D01*
X147238829Y-53414629D01*
X147241309Y-53407699D01*
X147244456Y-53401045D01*
X147248240Y-53394732D01*
X147252624Y-53388821D01*
X147257567Y-53383367D01*
X147263021Y-53378424D01*
X147268932Y-53374040D01*
X147275245Y-53370256D01*
X147281899Y-53367109D01*
X147288829Y-53364629D01*
X147295968Y-53362841D01*
X147303249Y-53361761D01*
X147310600Y-53361400D01*
X147460600Y-53361400D01*
X147467951Y-53361761D01*
X147467951Y-53361761D01*
G37*
D15*
X147385600Y-54098900D03*
D10*
G36*
X147967951Y-53361761D02*
G01*
X147975232Y-53362841D01*
X147982371Y-53364629D01*
X147989301Y-53367109D01*
X147995955Y-53370256D01*
X148002268Y-53374040D01*
X148008179Y-53378424D01*
X148013633Y-53383367D01*
X148018576Y-53388821D01*
X148022960Y-53394732D01*
X148026744Y-53401045D01*
X148029891Y-53407699D01*
X148032371Y-53414629D01*
X148034159Y-53421768D01*
X148035239Y-53429049D01*
X148035600Y-53436400D01*
X148035600Y-54761400D01*
X148035239Y-54768751D01*
X148034159Y-54776032D01*
X148032371Y-54783171D01*
X148029891Y-54790101D01*
X148026744Y-54796755D01*
X148022960Y-54803068D01*
X148018576Y-54808979D01*
X148013633Y-54814433D01*
X148008179Y-54819376D01*
X148002268Y-54823760D01*
X147995955Y-54827544D01*
X147989301Y-54830691D01*
X147982371Y-54833171D01*
X147975232Y-54834959D01*
X147967951Y-54836039D01*
X147960600Y-54836400D01*
X147810600Y-54836400D01*
X147803249Y-54836039D01*
X147795968Y-54834959D01*
X147788829Y-54833171D01*
X147781899Y-54830691D01*
X147775245Y-54827544D01*
X147768932Y-54823760D01*
X147763021Y-54819376D01*
X147757567Y-54814433D01*
X147752624Y-54808979D01*
X147748240Y-54803068D01*
X147744456Y-54796755D01*
X147741309Y-54790101D01*
X147738829Y-54783171D01*
X147737041Y-54776032D01*
X147735961Y-54768751D01*
X147735600Y-54761400D01*
X147735600Y-53436400D01*
X147735961Y-53429049D01*
X147737041Y-53421768D01*
X147738829Y-53414629D01*
X147741309Y-53407699D01*
X147744456Y-53401045D01*
X147748240Y-53394732D01*
X147752624Y-53388821D01*
X147757567Y-53383367D01*
X147763021Y-53378424D01*
X147768932Y-53374040D01*
X147775245Y-53370256D01*
X147781899Y-53367109D01*
X147788829Y-53364629D01*
X147795968Y-53362841D01*
X147803249Y-53361761D01*
X147810600Y-53361400D01*
X147960600Y-53361400D01*
X147967951Y-53361761D01*
X147967951Y-53361761D01*
G37*
D15*
X147885600Y-54098900D03*
D10*
G36*
X149967951Y-52536761D02*
G01*
X149975232Y-52537841D01*
X149982371Y-52539629D01*
X149989301Y-52542109D01*
X149995955Y-52545256D01*
X150002268Y-52549040D01*
X150008179Y-52553424D01*
X150013633Y-52558367D01*
X150018576Y-52563821D01*
X150022960Y-52569732D01*
X150026744Y-52576045D01*
X150029891Y-52582699D01*
X150032371Y-52589629D01*
X150034159Y-52596768D01*
X150035239Y-52604049D01*
X150035600Y-52611400D01*
X150035600Y-52761400D01*
X150035239Y-52768751D01*
X150034159Y-52776032D01*
X150032371Y-52783171D01*
X150029891Y-52790101D01*
X150026744Y-52796755D01*
X150022960Y-52803068D01*
X150018576Y-52808979D01*
X150013633Y-52814433D01*
X150008179Y-52819376D01*
X150002268Y-52823760D01*
X149995955Y-52827544D01*
X149989301Y-52830691D01*
X149982371Y-52833171D01*
X149975232Y-52834959D01*
X149967951Y-52836039D01*
X149960600Y-52836400D01*
X148635600Y-52836400D01*
X148628249Y-52836039D01*
X148620968Y-52834959D01*
X148613829Y-52833171D01*
X148606899Y-52830691D01*
X148600245Y-52827544D01*
X148593932Y-52823760D01*
X148588021Y-52819376D01*
X148582567Y-52814433D01*
X148577624Y-52808979D01*
X148573240Y-52803068D01*
X148569456Y-52796755D01*
X148566309Y-52790101D01*
X148563829Y-52783171D01*
X148562041Y-52776032D01*
X148560961Y-52768751D01*
X148560600Y-52761400D01*
X148560600Y-52611400D01*
X148560961Y-52604049D01*
X148562041Y-52596768D01*
X148563829Y-52589629D01*
X148566309Y-52582699D01*
X148569456Y-52576045D01*
X148573240Y-52569732D01*
X148577624Y-52563821D01*
X148582567Y-52558367D01*
X148588021Y-52553424D01*
X148593932Y-52549040D01*
X148600245Y-52545256D01*
X148606899Y-52542109D01*
X148613829Y-52539629D01*
X148620968Y-52537841D01*
X148628249Y-52536761D01*
X148635600Y-52536400D01*
X149960600Y-52536400D01*
X149967951Y-52536761D01*
X149967951Y-52536761D01*
G37*
D15*
X149298100Y-52686400D03*
D10*
G36*
X149967951Y-52036761D02*
G01*
X149975232Y-52037841D01*
X149982371Y-52039629D01*
X149989301Y-52042109D01*
X149995955Y-52045256D01*
X150002268Y-52049040D01*
X150008179Y-52053424D01*
X150013633Y-52058367D01*
X150018576Y-52063821D01*
X150022960Y-52069732D01*
X150026744Y-52076045D01*
X150029891Y-52082699D01*
X150032371Y-52089629D01*
X150034159Y-52096768D01*
X150035239Y-52104049D01*
X150035600Y-52111400D01*
X150035600Y-52261400D01*
X150035239Y-52268751D01*
X150034159Y-52276032D01*
X150032371Y-52283171D01*
X150029891Y-52290101D01*
X150026744Y-52296755D01*
X150022960Y-52303068D01*
X150018576Y-52308979D01*
X150013633Y-52314433D01*
X150008179Y-52319376D01*
X150002268Y-52323760D01*
X149995955Y-52327544D01*
X149989301Y-52330691D01*
X149982371Y-52333171D01*
X149975232Y-52334959D01*
X149967951Y-52336039D01*
X149960600Y-52336400D01*
X148635600Y-52336400D01*
X148628249Y-52336039D01*
X148620968Y-52334959D01*
X148613829Y-52333171D01*
X148606899Y-52330691D01*
X148600245Y-52327544D01*
X148593932Y-52323760D01*
X148588021Y-52319376D01*
X148582567Y-52314433D01*
X148577624Y-52308979D01*
X148573240Y-52303068D01*
X148569456Y-52296755D01*
X148566309Y-52290101D01*
X148563829Y-52283171D01*
X148562041Y-52276032D01*
X148560961Y-52268751D01*
X148560600Y-52261400D01*
X148560600Y-52111400D01*
X148560961Y-52104049D01*
X148562041Y-52096768D01*
X148563829Y-52089629D01*
X148566309Y-52082699D01*
X148569456Y-52076045D01*
X148573240Y-52069732D01*
X148577624Y-52063821D01*
X148582567Y-52058367D01*
X148588021Y-52053424D01*
X148593932Y-52049040D01*
X148600245Y-52045256D01*
X148606899Y-52042109D01*
X148613829Y-52039629D01*
X148620968Y-52037841D01*
X148628249Y-52036761D01*
X148635600Y-52036400D01*
X149960600Y-52036400D01*
X149967951Y-52036761D01*
X149967951Y-52036761D01*
G37*
D15*
X149298100Y-52186400D03*
D10*
G36*
X149967951Y-51536761D02*
G01*
X149975232Y-51537841D01*
X149982371Y-51539629D01*
X149989301Y-51542109D01*
X149995955Y-51545256D01*
X150002268Y-51549040D01*
X150008179Y-51553424D01*
X150013633Y-51558367D01*
X150018576Y-51563821D01*
X150022960Y-51569732D01*
X150026744Y-51576045D01*
X150029891Y-51582699D01*
X150032371Y-51589629D01*
X150034159Y-51596768D01*
X150035239Y-51604049D01*
X150035600Y-51611400D01*
X150035600Y-51761400D01*
X150035239Y-51768751D01*
X150034159Y-51776032D01*
X150032371Y-51783171D01*
X150029891Y-51790101D01*
X150026744Y-51796755D01*
X150022960Y-51803068D01*
X150018576Y-51808979D01*
X150013633Y-51814433D01*
X150008179Y-51819376D01*
X150002268Y-51823760D01*
X149995955Y-51827544D01*
X149989301Y-51830691D01*
X149982371Y-51833171D01*
X149975232Y-51834959D01*
X149967951Y-51836039D01*
X149960600Y-51836400D01*
X148635600Y-51836400D01*
X148628249Y-51836039D01*
X148620968Y-51834959D01*
X148613829Y-51833171D01*
X148606899Y-51830691D01*
X148600245Y-51827544D01*
X148593932Y-51823760D01*
X148588021Y-51819376D01*
X148582567Y-51814433D01*
X148577624Y-51808979D01*
X148573240Y-51803068D01*
X148569456Y-51796755D01*
X148566309Y-51790101D01*
X148563829Y-51783171D01*
X148562041Y-51776032D01*
X148560961Y-51768751D01*
X148560600Y-51761400D01*
X148560600Y-51611400D01*
X148560961Y-51604049D01*
X148562041Y-51596768D01*
X148563829Y-51589629D01*
X148566309Y-51582699D01*
X148569456Y-51576045D01*
X148573240Y-51569732D01*
X148577624Y-51563821D01*
X148582567Y-51558367D01*
X148588021Y-51553424D01*
X148593932Y-51549040D01*
X148600245Y-51545256D01*
X148606899Y-51542109D01*
X148613829Y-51539629D01*
X148620968Y-51537841D01*
X148628249Y-51536761D01*
X148635600Y-51536400D01*
X149960600Y-51536400D01*
X149967951Y-51536761D01*
X149967951Y-51536761D01*
G37*
D15*
X149298100Y-51686400D03*
D10*
G36*
X149967951Y-51036761D02*
G01*
X149975232Y-51037841D01*
X149982371Y-51039629D01*
X149989301Y-51042109D01*
X149995955Y-51045256D01*
X150002268Y-51049040D01*
X150008179Y-51053424D01*
X150013633Y-51058367D01*
X150018576Y-51063821D01*
X150022960Y-51069732D01*
X150026744Y-51076045D01*
X150029891Y-51082699D01*
X150032371Y-51089629D01*
X150034159Y-51096768D01*
X150035239Y-51104049D01*
X150035600Y-51111400D01*
X150035600Y-51261400D01*
X150035239Y-51268751D01*
X150034159Y-51276032D01*
X150032371Y-51283171D01*
X150029891Y-51290101D01*
X150026744Y-51296755D01*
X150022960Y-51303068D01*
X150018576Y-51308979D01*
X150013633Y-51314433D01*
X150008179Y-51319376D01*
X150002268Y-51323760D01*
X149995955Y-51327544D01*
X149989301Y-51330691D01*
X149982371Y-51333171D01*
X149975232Y-51334959D01*
X149967951Y-51336039D01*
X149960600Y-51336400D01*
X148635600Y-51336400D01*
X148628249Y-51336039D01*
X148620968Y-51334959D01*
X148613829Y-51333171D01*
X148606899Y-51330691D01*
X148600245Y-51327544D01*
X148593932Y-51323760D01*
X148588021Y-51319376D01*
X148582567Y-51314433D01*
X148577624Y-51308979D01*
X148573240Y-51303068D01*
X148569456Y-51296755D01*
X148566309Y-51290101D01*
X148563829Y-51283171D01*
X148562041Y-51276032D01*
X148560961Y-51268751D01*
X148560600Y-51261400D01*
X148560600Y-51111400D01*
X148560961Y-51104049D01*
X148562041Y-51096768D01*
X148563829Y-51089629D01*
X148566309Y-51082699D01*
X148569456Y-51076045D01*
X148573240Y-51069732D01*
X148577624Y-51063821D01*
X148582567Y-51058367D01*
X148588021Y-51053424D01*
X148593932Y-51049040D01*
X148600245Y-51045256D01*
X148606899Y-51042109D01*
X148613829Y-51039629D01*
X148620968Y-51037841D01*
X148628249Y-51036761D01*
X148635600Y-51036400D01*
X149960600Y-51036400D01*
X149967951Y-51036761D01*
X149967951Y-51036761D01*
G37*
D15*
X149298100Y-51186400D03*
D10*
G36*
X149967951Y-50536761D02*
G01*
X149975232Y-50537841D01*
X149982371Y-50539629D01*
X149989301Y-50542109D01*
X149995955Y-50545256D01*
X150002268Y-50549040D01*
X150008179Y-50553424D01*
X150013633Y-50558367D01*
X150018576Y-50563821D01*
X150022960Y-50569732D01*
X150026744Y-50576045D01*
X150029891Y-50582699D01*
X150032371Y-50589629D01*
X150034159Y-50596768D01*
X150035239Y-50604049D01*
X150035600Y-50611400D01*
X150035600Y-50761400D01*
X150035239Y-50768751D01*
X150034159Y-50776032D01*
X150032371Y-50783171D01*
X150029891Y-50790101D01*
X150026744Y-50796755D01*
X150022960Y-50803068D01*
X150018576Y-50808979D01*
X150013633Y-50814433D01*
X150008179Y-50819376D01*
X150002268Y-50823760D01*
X149995955Y-50827544D01*
X149989301Y-50830691D01*
X149982371Y-50833171D01*
X149975232Y-50834959D01*
X149967951Y-50836039D01*
X149960600Y-50836400D01*
X148635600Y-50836400D01*
X148628249Y-50836039D01*
X148620968Y-50834959D01*
X148613829Y-50833171D01*
X148606899Y-50830691D01*
X148600245Y-50827544D01*
X148593932Y-50823760D01*
X148588021Y-50819376D01*
X148582567Y-50814433D01*
X148577624Y-50808979D01*
X148573240Y-50803068D01*
X148569456Y-50796755D01*
X148566309Y-50790101D01*
X148563829Y-50783171D01*
X148562041Y-50776032D01*
X148560961Y-50768751D01*
X148560600Y-50761400D01*
X148560600Y-50611400D01*
X148560961Y-50604049D01*
X148562041Y-50596768D01*
X148563829Y-50589629D01*
X148566309Y-50582699D01*
X148569456Y-50576045D01*
X148573240Y-50569732D01*
X148577624Y-50563821D01*
X148582567Y-50558367D01*
X148588021Y-50553424D01*
X148593932Y-50549040D01*
X148600245Y-50545256D01*
X148606899Y-50542109D01*
X148613829Y-50539629D01*
X148620968Y-50537841D01*
X148628249Y-50536761D01*
X148635600Y-50536400D01*
X149960600Y-50536400D01*
X149967951Y-50536761D01*
X149967951Y-50536761D01*
G37*
D15*
X149298100Y-50686400D03*
D10*
G36*
X149967951Y-50036761D02*
G01*
X149975232Y-50037841D01*
X149982371Y-50039629D01*
X149989301Y-50042109D01*
X149995955Y-50045256D01*
X150002268Y-50049040D01*
X150008179Y-50053424D01*
X150013633Y-50058367D01*
X150018576Y-50063821D01*
X150022960Y-50069732D01*
X150026744Y-50076045D01*
X150029891Y-50082699D01*
X150032371Y-50089629D01*
X150034159Y-50096768D01*
X150035239Y-50104049D01*
X150035600Y-50111400D01*
X150035600Y-50261400D01*
X150035239Y-50268751D01*
X150034159Y-50276032D01*
X150032371Y-50283171D01*
X150029891Y-50290101D01*
X150026744Y-50296755D01*
X150022960Y-50303068D01*
X150018576Y-50308979D01*
X150013633Y-50314433D01*
X150008179Y-50319376D01*
X150002268Y-50323760D01*
X149995955Y-50327544D01*
X149989301Y-50330691D01*
X149982371Y-50333171D01*
X149975232Y-50334959D01*
X149967951Y-50336039D01*
X149960600Y-50336400D01*
X148635600Y-50336400D01*
X148628249Y-50336039D01*
X148620968Y-50334959D01*
X148613829Y-50333171D01*
X148606899Y-50330691D01*
X148600245Y-50327544D01*
X148593932Y-50323760D01*
X148588021Y-50319376D01*
X148582567Y-50314433D01*
X148577624Y-50308979D01*
X148573240Y-50303068D01*
X148569456Y-50296755D01*
X148566309Y-50290101D01*
X148563829Y-50283171D01*
X148562041Y-50276032D01*
X148560961Y-50268751D01*
X148560600Y-50261400D01*
X148560600Y-50111400D01*
X148560961Y-50104049D01*
X148562041Y-50096768D01*
X148563829Y-50089629D01*
X148566309Y-50082699D01*
X148569456Y-50076045D01*
X148573240Y-50069732D01*
X148577624Y-50063821D01*
X148582567Y-50058367D01*
X148588021Y-50053424D01*
X148593932Y-50049040D01*
X148600245Y-50045256D01*
X148606899Y-50042109D01*
X148613829Y-50039629D01*
X148620968Y-50037841D01*
X148628249Y-50036761D01*
X148635600Y-50036400D01*
X149960600Y-50036400D01*
X149967951Y-50036761D01*
X149967951Y-50036761D01*
G37*
D15*
X149298100Y-50186400D03*
D10*
G36*
X149967951Y-49536761D02*
G01*
X149975232Y-49537841D01*
X149982371Y-49539629D01*
X149989301Y-49542109D01*
X149995955Y-49545256D01*
X150002268Y-49549040D01*
X150008179Y-49553424D01*
X150013633Y-49558367D01*
X150018576Y-49563821D01*
X150022960Y-49569732D01*
X150026744Y-49576045D01*
X150029891Y-49582699D01*
X150032371Y-49589629D01*
X150034159Y-49596768D01*
X150035239Y-49604049D01*
X150035600Y-49611400D01*
X150035600Y-49761400D01*
X150035239Y-49768751D01*
X150034159Y-49776032D01*
X150032371Y-49783171D01*
X150029891Y-49790101D01*
X150026744Y-49796755D01*
X150022960Y-49803068D01*
X150018576Y-49808979D01*
X150013633Y-49814433D01*
X150008179Y-49819376D01*
X150002268Y-49823760D01*
X149995955Y-49827544D01*
X149989301Y-49830691D01*
X149982371Y-49833171D01*
X149975232Y-49834959D01*
X149967951Y-49836039D01*
X149960600Y-49836400D01*
X148635600Y-49836400D01*
X148628249Y-49836039D01*
X148620968Y-49834959D01*
X148613829Y-49833171D01*
X148606899Y-49830691D01*
X148600245Y-49827544D01*
X148593932Y-49823760D01*
X148588021Y-49819376D01*
X148582567Y-49814433D01*
X148577624Y-49808979D01*
X148573240Y-49803068D01*
X148569456Y-49796755D01*
X148566309Y-49790101D01*
X148563829Y-49783171D01*
X148562041Y-49776032D01*
X148560961Y-49768751D01*
X148560600Y-49761400D01*
X148560600Y-49611400D01*
X148560961Y-49604049D01*
X148562041Y-49596768D01*
X148563829Y-49589629D01*
X148566309Y-49582699D01*
X148569456Y-49576045D01*
X148573240Y-49569732D01*
X148577624Y-49563821D01*
X148582567Y-49558367D01*
X148588021Y-49553424D01*
X148593932Y-49549040D01*
X148600245Y-49545256D01*
X148606899Y-49542109D01*
X148613829Y-49539629D01*
X148620968Y-49537841D01*
X148628249Y-49536761D01*
X148635600Y-49536400D01*
X149960600Y-49536400D01*
X149967951Y-49536761D01*
X149967951Y-49536761D01*
G37*
D15*
X149298100Y-49686400D03*
D10*
G36*
X149967951Y-49036761D02*
G01*
X149975232Y-49037841D01*
X149982371Y-49039629D01*
X149989301Y-49042109D01*
X149995955Y-49045256D01*
X150002268Y-49049040D01*
X150008179Y-49053424D01*
X150013633Y-49058367D01*
X150018576Y-49063821D01*
X150022960Y-49069732D01*
X150026744Y-49076045D01*
X150029891Y-49082699D01*
X150032371Y-49089629D01*
X150034159Y-49096768D01*
X150035239Y-49104049D01*
X150035600Y-49111400D01*
X150035600Y-49261400D01*
X150035239Y-49268751D01*
X150034159Y-49276032D01*
X150032371Y-49283171D01*
X150029891Y-49290101D01*
X150026744Y-49296755D01*
X150022960Y-49303068D01*
X150018576Y-49308979D01*
X150013633Y-49314433D01*
X150008179Y-49319376D01*
X150002268Y-49323760D01*
X149995955Y-49327544D01*
X149989301Y-49330691D01*
X149982371Y-49333171D01*
X149975232Y-49334959D01*
X149967951Y-49336039D01*
X149960600Y-49336400D01*
X148635600Y-49336400D01*
X148628249Y-49336039D01*
X148620968Y-49334959D01*
X148613829Y-49333171D01*
X148606899Y-49330691D01*
X148600245Y-49327544D01*
X148593932Y-49323760D01*
X148588021Y-49319376D01*
X148582567Y-49314433D01*
X148577624Y-49308979D01*
X148573240Y-49303068D01*
X148569456Y-49296755D01*
X148566309Y-49290101D01*
X148563829Y-49283171D01*
X148562041Y-49276032D01*
X148560961Y-49268751D01*
X148560600Y-49261400D01*
X148560600Y-49111400D01*
X148560961Y-49104049D01*
X148562041Y-49096768D01*
X148563829Y-49089629D01*
X148566309Y-49082699D01*
X148569456Y-49076045D01*
X148573240Y-49069732D01*
X148577624Y-49063821D01*
X148582567Y-49058367D01*
X148588021Y-49053424D01*
X148593932Y-49049040D01*
X148600245Y-49045256D01*
X148606899Y-49042109D01*
X148613829Y-49039629D01*
X148620968Y-49037841D01*
X148628249Y-49036761D01*
X148635600Y-49036400D01*
X149960600Y-49036400D01*
X149967951Y-49036761D01*
X149967951Y-49036761D01*
G37*
D15*
X149298100Y-49186400D03*
D10*
G36*
X149967951Y-48536761D02*
G01*
X149975232Y-48537841D01*
X149982371Y-48539629D01*
X149989301Y-48542109D01*
X149995955Y-48545256D01*
X150002268Y-48549040D01*
X150008179Y-48553424D01*
X150013633Y-48558367D01*
X150018576Y-48563821D01*
X150022960Y-48569732D01*
X150026744Y-48576045D01*
X150029891Y-48582699D01*
X150032371Y-48589629D01*
X150034159Y-48596768D01*
X150035239Y-48604049D01*
X150035600Y-48611400D01*
X150035600Y-48761400D01*
X150035239Y-48768751D01*
X150034159Y-48776032D01*
X150032371Y-48783171D01*
X150029891Y-48790101D01*
X150026744Y-48796755D01*
X150022960Y-48803068D01*
X150018576Y-48808979D01*
X150013633Y-48814433D01*
X150008179Y-48819376D01*
X150002268Y-48823760D01*
X149995955Y-48827544D01*
X149989301Y-48830691D01*
X149982371Y-48833171D01*
X149975232Y-48834959D01*
X149967951Y-48836039D01*
X149960600Y-48836400D01*
X148635600Y-48836400D01*
X148628249Y-48836039D01*
X148620968Y-48834959D01*
X148613829Y-48833171D01*
X148606899Y-48830691D01*
X148600245Y-48827544D01*
X148593932Y-48823760D01*
X148588021Y-48819376D01*
X148582567Y-48814433D01*
X148577624Y-48808979D01*
X148573240Y-48803068D01*
X148569456Y-48796755D01*
X148566309Y-48790101D01*
X148563829Y-48783171D01*
X148562041Y-48776032D01*
X148560961Y-48768751D01*
X148560600Y-48761400D01*
X148560600Y-48611400D01*
X148560961Y-48604049D01*
X148562041Y-48596768D01*
X148563829Y-48589629D01*
X148566309Y-48582699D01*
X148569456Y-48576045D01*
X148573240Y-48569732D01*
X148577624Y-48563821D01*
X148582567Y-48558367D01*
X148588021Y-48553424D01*
X148593932Y-48549040D01*
X148600245Y-48545256D01*
X148606899Y-48542109D01*
X148613829Y-48539629D01*
X148620968Y-48537841D01*
X148628249Y-48536761D01*
X148635600Y-48536400D01*
X149960600Y-48536400D01*
X149967951Y-48536761D01*
X149967951Y-48536761D01*
G37*
D15*
X149298100Y-48686400D03*
D10*
G36*
X149967951Y-48036761D02*
G01*
X149975232Y-48037841D01*
X149982371Y-48039629D01*
X149989301Y-48042109D01*
X149995955Y-48045256D01*
X150002268Y-48049040D01*
X150008179Y-48053424D01*
X150013633Y-48058367D01*
X150018576Y-48063821D01*
X150022960Y-48069732D01*
X150026744Y-48076045D01*
X150029891Y-48082699D01*
X150032371Y-48089629D01*
X150034159Y-48096768D01*
X150035239Y-48104049D01*
X150035600Y-48111400D01*
X150035600Y-48261400D01*
X150035239Y-48268751D01*
X150034159Y-48276032D01*
X150032371Y-48283171D01*
X150029891Y-48290101D01*
X150026744Y-48296755D01*
X150022960Y-48303068D01*
X150018576Y-48308979D01*
X150013633Y-48314433D01*
X150008179Y-48319376D01*
X150002268Y-48323760D01*
X149995955Y-48327544D01*
X149989301Y-48330691D01*
X149982371Y-48333171D01*
X149975232Y-48334959D01*
X149967951Y-48336039D01*
X149960600Y-48336400D01*
X148635600Y-48336400D01*
X148628249Y-48336039D01*
X148620968Y-48334959D01*
X148613829Y-48333171D01*
X148606899Y-48330691D01*
X148600245Y-48327544D01*
X148593932Y-48323760D01*
X148588021Y-48319376D01*
X148582567Y-48314433D01*
X148577624Y-48308979D01*
X148573240Y-48303068D01*
X148569456Y-48296755D01*
X148566309Y-48290101D01*
X148563829Y-48283171D01*
X148562041Y-48276032D01*
X148560961Y-48268751D01*
X148560600Y-48261400D01*
X148560600Y-48111400D01*
X148560961Y-48104049D01*
X148562041Y-48096768D01*
X148563829Y-48089629D01*
X148566309Y-48082699D01*
X148569456Y-48076045D01*
X148573240Y-48069732D01*
X148577624Y-48063821D01*
X148582567Y-48058367D01*
X148588021Y-48053424D01*
X148593932Y-48049040D01*
X148600245Y-48045256D01*
X148606899Y-48042109D01*
X148613829Y-48039629D01*
X148620968Y-48037841D01*
X148628249Y-48036761D01*
X148635600Y-48036400D01*
X149960600Y-48036400D01*
X149967951Y-48036761D01*
X149967951Y-48036761D01*
G37*
D15*
X149298100Y-48186400D03*
D10*
G36*
X149967951Y-47536761D02*
G01*
X149975232Y-47537841D01*
X149982371Y-47539629D01*
X149989301Y-47542109D01*
X149995955Y-47545256D01*
X150002268Y-47549040D01*
X150008179Y-47553424D01*
X150013633Y-47558367D01*
X150018576Y-47563821D01*
X150022960Y-47569732D01*
X150026744Y-47576045D01*
X150029891Y-47582699D01*
X150032371Y-47589629D01*
X150034159Y-47596768D01*
X150035239Y-47604049D01*
X150035600Y-47611400D01*
X150035600Y-47761400D01*
X150035239Y-47768751D01*
X150034159Y-47776032D01*
X150032371Y-47783171D01*
X150029891Y-47790101D01*
X150026744Y-47796755D01*
X150022960Y-47803068D01*
X150018576Y-47808979D01*
X150013633Y-47814433D01*
X150008179Y-47819376D01*
X150002268Y-47823760D01*
X149995955Y-47827544D01*
X149989301Y-47830691D01*
X149982371Y-47833171D01*
X149975232Y-47834959D01*
X149967951Y-47836039D01*
X149960600Y-47836400D01*
X148635600Y-47836400D01*
X148628249Y-47836039D01*
X148620968Y-47834959D01*
X148613829Y-47833171D01*
X148606899Y-47830691D01*
X148600245Y-47827544D01*
X148593932Y-47823760D01*
X148588021Y-47819376D01*
X148582567Y-47814433D01*
X148577624Y-47808979D01*
X148573240Y-47803068D01*
X148569456Y-47796755D01*
X148566309Y-47790101D01*
X148563829Y-47783171D01*
X148562041Y-47776032D01*
X148560961Y-47768751D01*
X148560600Y-47761400D01*
X148560600Y-47611400D01*
X148560961Y-47604049D01*
X148562041Y-47596768D01*
X148563829Y-47589629D01*
X148566309Y-47582699D01*
X148569456Y-47576045D01*
X148573240Y-47569732D01*
X148577624Y-47563821D01*
X148582567Y-47558367D01*
X148588021Y-47553424D01*
X148593932Y-47549040D01*
X148600245Y-47545256D01*
X148606899Y-47542109D01*
X148613829Y-47539629D01*
X148620968Y-47537841D01*
X148628249Y-47536761D01*
X148635600Y-47536400D01*
X149960600Y-47536400D01*
X149967951Y-47536761D01*
X149967951Y-47536761D01*
G37*
D15*
X149298100Y-47686400D03*
D10*
G36*
X149967951Y-47036761D02*
G01*
X149975232Y-47037841D01*
X149982371Y-47039629D01*
X149989301Y-47042109D01*
X149995955Y-47045256D01*
X150002268Y-47049040D01*
X150008179Y-47053424D01*
X150013633Y-47058367D01*
X150018576Y-47063821D01*
X150022960Y-47069732D01*
X150026744Y-47076045D01*
X150029891Y-47082699D01*
X150032371Y-47089629D01*
X150034159Y-47096768D01*
X150035239Y-47104049D01*
X150035600Y-47111400D01*
X150035600Y-47261400D01*
X150035239Y-47268751D01*
X150034159Y-47276032D01*
X150032371Y-47283171D01*
X150029891Y-47290101D01*
X150026744Y-47296755D01*
X150022960Y-47303068D01*
X150018576Y-47308979D01*
X150013633Y-47314433D01*
X150008179Y-47319376D01*
X150002268Y-47323760D01*
X149995955Y-47327544D01*
X149989301Y-47330691D01*
X149982371Y-47333171D01*
X149975232Y-47334959D01*
X149967951Y-47336039D01*
X149960600Y-47336400D01*
X148635600Y-47336400D01*
X148628249Y-47336039D01*
X148620968Y-47334959D01*
X148613829Y-47333171D01*
X148606899Y-47330691D01*
X148600245Y-47327544D01*
X148593932Y-47323760D01*
X148588021Y-47319376D01*
X148582567Y-47314433D01*
X148577624Y-47308979D01*
X148573240Y-47303068D01*
X148569456Y-47296755D01*
X148566309Y-47290101D01*
X148563829Y-47283171D01*
X148562041Y-47276032D01*
X148560961Y-47268751D01*
X148560600Y-47261400D01*
X148560600Y-47111400D01*
X148560961Y-47104049D01*
X148562041Y-47096768D01*
X148563829Y-47089629D01*
X148566309Y-47082699D01*
X148569456Y-47076045D01*
X148573240Y-47069732D01*
X148577624Y-47063821D01*
X148582567Y-47058367D01*
X148588021Y-47053424D01*
X148593932Y-47049040D01*
X148600245Y-47045256D01*
X148606899Y-47042109D01*
X148613829Y-47039629D01*
X148620968Y-47037841D01*
X148628249Y-47036761D01*
X148635600Y-47036400D01*
X149960600Y-47036400D01*
X149967951Y-47036761D01*
X149967951Y-47036761D01*
G37*
D15*
X149298100Y-47186400D03*
D16*
X120189200Y-63529400D03*
X120189200Y-62879400D03*
X120189200Y-62229400D03*
X120189200Y-61579400D03*
X120189200Y-60929400D03*
X120189200Y-60279400D03*
X120189200Y-59629400D03*
X120189200Y-58979400D03*
X120189200Y-58329400D03*
X120189200Y-57679400D03*
X126089200Y-57679400D03*
X126089200Y-58329400D03*
X126089200Y-58979400D03*
X126089200Y-59629400D03*
X126089200Y-60279400D03*
X126089200Y-60929400D03*
X126089200Y-61579400D03*
X126089200Y-62229400D03*
X126089200Y-62879400D03*
X126089200Y-63529400D03*
X126292400Y-37621400D03*
X126292400Y-36971400D03*
X126292400Y-36321400D03*
X126292400Y-35671400D03*
X126292400Y-35021400D03*
X126292400Y-34371400D03*
X126292400Y-33721400D03*
X126292400Y-33071400D03*
X126292400Y-32421400D03*
X126292400Y-31771400D03*
X120392400Y-31771400D03*
X120392400Y-32421400D03*
X120392400Y-33071400D03*
X120392400Y-33721400D03*
X120392400Y-34371400D03*
X120392400Y-35021400D03*
X120392400Y-35671400D03*
X120392400Y-36321400D03*
X120392400Y-36971400D03*
X120392400Y-37621400D03*
M02*
